<svg id="svg" xmlns="http://www.w3.org/2000/svg" xmlns:xlink="http://www.w3.org/1999/xlink" width="400" height="400" viewBox="0, 0, 400,400"><g id="svgg"><path id="path0" d="M197.327 1.040 C 196.057 1.587,194.964 2.097,194.897 2.172 C 194.830 2.247,194.557 2.347,194.289 2.394 C 194.022 2.440,193.584 2.599,193.317 2.747 C 193.050 2.894,192.722 3.037,192.588 3.064 C 192.370 3.109,188.609 4.657,186.756 5.464 C 186.355 5.639,185.152 6.135,184.083 6.566 C 183.013 6.997,181.701 7.542,181.166 7.778 C 180.632 8.013,179.812 8.348,179.344 8.523 C 178.876 8.698,177.783 9.166,176.914 9.565 C 176.045 9.963,175.279 10.302,175.213 10.319 C 174.326 10.539,173.269 11.025,173.269 11.212 C 173.269 11.343,173.167 11.388,173.044 11.311 C 172.763 11.138,171.567 11.664,171.567 11.961 C 171.567 12.081,171.472 12.120,171.355 12.048 C 171.038 11.852,168.369 12.999,168.586 13.238 C 168.689 13.351,168.647 13.372,168.494 13.284 C 168.224 13.130,163.040 15.131,162.361 15.652 C 162.176 15.794,161.902 15.918,161.753 15.928 C 161.604 15.937,161.264 16.036,160.996 16.148 C 160.729 16.260,158.104 17.335,155.164 18.538 C 152.224 19.741,149.714 20.819,149.587 20.933 C 149.460 21.048,149.181 21.142,148.967 21.142 C 148.753 21.142,148.448 21.272,148.289 21.431 C 148.130 21.590,147.810 21.748,147.577 21.783 C 147.090 21.854,138.701 25.299,138.518 25.503 C 138.451 25.577,138.232 25.671,138.032 25.711 C 137.094 25.899,133.440 27.549,133.554 27.733 C 133.625 27.847,133.534 27.884,133.353 27.815 C 133.172 27.745,131.881 28.170,130.485 28.759 C 129.089 29.348,126.525 30.413,124.787 31.126 C 123.050 31.839,121.574 32.481,121.507 32.554 C 121.440 32.626,121.221 32.716,121.021 32.754 C 120.275 32.896,119.320 33.359,119.320 33.580 C 119.320 33.705,119.225 33.749,119.110 33.678 C 118.840 33.511,116.889 34.273,116.889 34.545 C 116.889 34.658,116.624 34.751,116.299 34.751 C 115.975 34.751,115.550 34.910,115.356 35.104 C 115.162 35.298,114.946 35.400,114.877 35.331 C 114.807 35.261,114.197 35.485,113.519 35.828 C 112.842 36.171,112.179 36.452,112.044 36.452 C 111.910 36.452,111.203 36.725,110.472 37.060 C 109.742 37.394,109.076 37.667,108.992 37.667 C 108.908 37.667,108.273 37.925,107.579 38.239 C 106.886 38.554,103.311 40.043,99.635 41.549 C 95.960 43.054,92.625 44.458,92.224 44.669 C 91.823 44.880,91.356 45.076,91.187 45.105 C 90.686 45.192,84.710 47.681,84.459 47.908 C 84.332 48.023,84.056 48.117,83.845 48.117 C 83.634 48.117,83.196 48.303,82.872 48.530 C 82.547 48.757,82.113 48.959,81.906 48.979 C 81.301 49.037,77.045 50.852,77.143 51.010 C 77.192 51.089,76.996 51.167,76.708 51.182 C 76.131 51.212,69.088 54.093,68.570 54.510 C 68.392 54.654,68.064 54.789,67.841 54.811 C 67.219 54.872,63.073 56.649,62.980 56.894 C 62.936 57.014,62.805 57.053,62.689 56.982 C 62.574 56.910,61.907 57.128,61.206 57.466 C 60.506 57.804,59.785 58.080,59.603 58.080 C 59.138 58.080,58.039 59.322,58.179 59.689 C 58.243 59.856,58.220 60.027,58.127 60.069 C 57.825 60.207,56.852 62.480,56.996 62.713 C 57.074 62.838,57.028 62.940,56.896 62.940 C 56.763 62.940,56.581 63.187,56.490 63.487 C 56.400 63.788,55.953 64.890,55.499 65.936 C 55.044 66.982,54.727 67.926,54.794 68.035 C 54.861 68.143,54.767 68.355,54.586 68.506 C 54.404 68.656,54.067 69.298,53.836 69.931 C 53.606 70.564,53.273 71.409,53.097 71.810 C 52.922 72.211,52.213 73.906,51.522 75.577 C 50.831 77.248,50.121 78.943,49.943 79.344 C 49.151 81.136,48.848 81.979,48.956 82.087 C 49.020 82.151,48.858 82.477,48.595 82.811 C 48.332 83.146,48.117 83.601,48.117 83.824 C 48.117 84.046,48.026 84.332,47.915 84.459 C 47.654 84.757,46.397 87.728,46.532 87.728 C 46.588 87.728,46.312 88.377,45.918 89.171 C 45.524 89.964,45.168 90.812,45.127 91.054 C 45.086 91.296,44.880 91.823,44.669 92.224 C 44.458 92.625,43.054 95.960,41.549 99.635 C 40.043 103.311,38.546 106.903,38.222 107.617 C 37.897 108.331,37.691 108.975,37.764 109.047 C 37.836 109.120,37.701 109.465,37.462 109.815 C 37.224 110.164,36.618 111.488,36.117 112.758 C 35.615 114.028,35.099 115.263,34.970 115.502 C 34.840 115.741,34.799 116.042,34.879 116.170 C 34.958 116.298,34.922 116.403,34.798 116.403 C 34.581 116.403,33.662 118.462,33.659 118.955 C 33.658 119.089,33.582 119.255,33.490 119.325 C 33.118 119.607,29.407 128.940,29.535 129.273 C 29.611 129.471,29.595 129.555,29.500 129.459 C 29.404 129.363,29.118 129.750,28.863 130.317 C 27.975 132.297,25.716 137.789,25.666 138.092 C 25.638 138.259,25.494 138.615,25.347 138.882 C 24.896 139.704,21.858 147.118,21.786 147.573 C 21.749 147.809,21.589 148.131,21.430 148.290 C 21.272 148.449,21.142 148.704,21.142 148.857 C 21.142 149.010,20.979 149.463,20.780 149.862 C 20.093 151.238,15.980 161.240,15.935 161.644 C 15.910 161.867,15.777 162.195,15.640 162.373 C 15.503 162.552,14.592 164.666,13.614 167.072 C 12.637 169.478,11.648 171.883,11.418 172.418 C 11.187 172.953,10.644 174.265,10.210 175.334 C 9.776 176.403,9.340 177.442,9.242 177.643 C 9.143 177.844,8.326 179.812,7.425 182.017 C 6.524 184.223,5.643 186.355,5.466 186.756 C 5.290 187.157,4.476 189.125,3.658 191.130 C 2.840 193.135,2.061 194.971,1.927 195.210 C 1.794 195.450,1.749 195.750,1.829 195.879 C 1.908 196.007,1.878 196.112,1.763 196.112 C 1.648 196.112,1.195 196.990,0.756 198.064 L -0.043 200.016 1.095 202.742 C 1.721 204.241,2.394 205.851,2.590 206.318 C 2.786 206.786,3.103 207.478,3.296 207.857 C 3.488 208.235,3.645 208.678,3.645 208.841 C 3.645 209.004,3.775 209.267,3.933 209.425 C 4.091 209.583,4.243 209.906,4.271 210.142 C 4.325 210.607,7.245 217.729,7.787 218.717 C 7.968 219.048,8.145 219.486,8.180 219.689 C 8.231 219.992,10.359 225.183,11.483 227.747 C 11.639 228.105,11.853 228.345,11.956 228.281 C 12.060 228.217,12.089 228.311,12.020 228.490 C 11.951 228.669,12.896 231.218,14.120 234.153 C 15.343 237.088,16.549 240.011,16.800 240.648 C 17.050 241.286,17.354 241.996,17.475 242.228 C 17.596 242.459,19.689 247.515,22.126 253.463 C 24.564 259.411,26.652 264.381,26.766 264.508 C 26.881 264.635,26.974 264.914,26.974 265.128 C 26.974 265.341,27.104 265.646,27.263 265.805 C 27.421 265.963,27.581 266.286,27.618 266.522 C 27.714 267.140,31.045 275.090,31.374 275.486 C 31.527 275.670,31.589 275.820,31.514 275.820 C 31.438 275.820,32.017 277.378,32.802 279.283 C 34.781 284.091,35.133 284.835,35.332 284.636 C 35.427 284.540,35.436 284.644,35.350 284.867 C 35.265 285.090,35.357 285.579,35.556 285.953 C 35.755 286.328,36.660 288.466,37.567 290.705 C 38.473 292.943,39.311 294.775,39.427 294.775 C 39.544 294.775,39.580 294.873,39.506 294.992 C 39.350 295.244,40.307 297.531,40.619 297.651 C 40.735 297.696,40.770 297.828,40.698 297.945 C 40.626 298.062,40.673 298.353,40.802 298.593 C 40.932 298.832,41.448 300.067,41.949 301.337 C 42.451 302.606,43.056 303.931,43.295 304.280 C 43.533 304.629,43.669 304.975,43.596 305.047 C 43.523 305.120,43.730 305.764,44.056 306.478 C 44.382 307.192,45.880 310.784,47.385 314.459 C 48.890 318.135,50.293 321.470,50.503 321.871 C 50.713 322.272,50.918 322.798,50.959 323.041 C 51.001 323.283,51.358 324.133,51.753 324.929 C 52.148 325.725,52.465 326.434,52.457 326.503 C 52.432 326.723,53.529 329.394,53.744 329.635 C 53.857 329.762,53.949 330.039,53.949 330.250 C 53.949 330.461,54.135 330.899,54.362 331.223 C 54.590 331.548,54.791 331.982,54.811 332.188 C 54.896 333.096,58.418 341.098,58.879 341.431 C 59.443 341.838,62.454 343.147,62.454 342.985 C 62.454 342.928,62.700 343.039,63.001 343.232 C 63.302 343.425,63.767 343.618,64.034 343.662 C 64.301 343.706,64.575 343.807,64.642 343.886 C 64.833 344.112,73.218 347.567,73.698 347.617 C 73.934 347.642,74.256 347.792,74.414 347.950 C 74.573 348.109,74.877 348.238,75.091 348.238 C 75.305 348.238,75.584 348.335,75.711 348.453 C 76.033 348.752,87.266 353.401,87.792 353.453 C 88.028 353.476,88.351 353.624,88.509 353.783 C 88.668 353.941,88.891 354.070,89.005 354.070 C 89.119 354.070,89.671 354.278,90.232 354.531 C 92.013 355.337,96.684 357.267,97.011 357.333 C 97.185 357.368,98.083 357.746,99.007 358.171 C 99.931 358.597,100.860 358.976,101.072 359.013 C 101.284 359.050,101.896 359.302,102.430 359.573 C 102.965 359.844,104.058 360.317,104.860 360.624 C 105.662 360.932,106.865 361.425,107.533 361.720 C 108.202 362.016,109.514 362.559,110.450 362.927 C 111.385 363.295,112.324 363.685,112.537 363.793 C 112.749 363.901,114.062 364.442,115.453 364.996 C 116.845 365.549,118.564 366.272,119.274 366.603 C 119.984 366.933,120.668 367.140,120.793 367.062 C 120.918 366.985,121.021 367.035,121.021 367.174 C 121.021 367.313,121.303 367.498,121.647 367.584 C 121.992 367.671,122.818 368.004,123.482 368.324 C 124.147 368.645,124.785 368.849,124.901 368.778 C 125.016 368.707,125.147 368.748,125.192 368.870 C 125.296 369.152,130.043 371.131,130.212 370.963 C 130.281 370.894,130.510 370.992,130.721 371.182 C 130.933 371.372,132.199 371.964,133.536 372.499 C 134.872 373.034,136.611 373.760,137.398 374.112 C 138.186 374.464,138.985 374.693,139.173 374.620 C 139.361 374.548,139.458 374.581,139.388 374.694 C 139.259 374.903,143.800 376.843,144.156 376.731 C 144.263 376.698,144.350 376.758,144.350 376.865 C 144.350 376.972,144.760 377.199,145.261 377.371 C 145.762 377.543,146.512 377.836,146.928 378.022 C 149.061 378.981,153.030 380.588,153.405 380.646 C 153.641 380.682,153.964 380.841,154.122 381.000 C 154.281 381.158,154.586 381.288,154.800 381.288 C 155.013 381.288,155.292 381.380,155.419 381.492 C 155.546 381.605,159.860 383.425,165.006 385.538 C 170.152 387.651,174.939 389.642,175.645 389.962 C 176.350 390.281,177.033 390.477,177.163 390.397 C 177.293 390.317,177.400 390.349,177.400 390.469 C 177.400 390.766,178.596 391.292,178.876 391.119 C 179.000 391.042,179.101 391.079,179.101 391.200 C 179.101 391.482,181.043 392.253,181.321 392.081 C 181.437 392.010,181.531 392.054,181.531 392.180 C 181.531 392.400,182.487 392.864,183.232 393.005 C 183.433 393.043,183.651 393.132,183.718 393.202 C 183.785 393.273,184.332 393.534,184.933 393.782 C 185.535 394.030,186.358 394.376,186.762 394.551 C 187.166 394.725,188.369 395.214,189.435 395.636 C 190.501 396.059,191.701 396.556,192.102 396.739 C 193.594 397.424,199.883 400.000,200.061 400.000 C 200.162 400.000,200.812 399.727,201.505 399.392 C 202.197 399.058,202.886 398.785,203.035 398.785 C 203.183 398.785,203.440 398.650,203.606 398.484 C 203.771 398.318,204.039 398.182,204.201 398.180 C 204.533 398.177,213.177 394.634,213.366 394.424 C 213.433 394.350,213.651 394.256,213.852 394.216 C 214.908 394.005,218.438 392.370,218.304 392.154 C 218.214 392.007,218.272 391.980,218.446 392.088 C 218.743 392.271,219.269 392.104,221.507 391.114 C 222.175 390.818,223.594 390.229,224.660 389.806 C 225.726 389.382,226.929 388.893,227.333 388.718 C 227.737 388.544,228.560 388.198,229.162 387.950 C 229.763 387.701,230.310 387.441,230.377 387.370 C 230.443 387.299,230.662 387.211,230.863 387.173 C 231.608 387.032,232.564 386.568,232.564 386.347 C 232.564 386.222,232.658 386.178,232.773 386.249 C 233.043 386.416,234.994 385.654,234.994 385.382 C 234.994 385.269,235.260 385.176,235.584 385.176 C 235.909 385.176,236.333 385.017,236.527 384.823 C 236.721 384.629,236.938 384.528,237.008 384.598 C 237.078 384.668,237.731 384.444,238.458 384.100 C 239.185 383.757,239.852 383.475,239.941 383.475 C 240.030 383.475,240.566 383.265,241.133 383.008 C 241.699 382.751,245.936 380.989,250.547 379.091 C 255.158 377.193,259.259 375.468,259.660 375.258 C 260.061 375.047,260.546 374.848,260.738 374.815 C 261.255 374.728,267.155 372.259,267.424 372.018 C 267.551 371.904,267.827 371.810,268.038 371.810 C 268.249 371.810,268.687 371.624,269.012 371.397 C 269.336 371.170,269.771 370.968,269.977 370.948 C 270.582 370.890,274.838 369.075,274.741 368.917 C 274.692 368.838,274.887 368.760,275.175 368.745 C 275.837 368.710,282.857 365.797,283.373 365.343 C 283.585 365.157,283.814 365.062,283.883 365.131 C 284.052 365.299,288.799 363.319,288.903 363.037 C 288.948 362.916,289.079 362.874,289.194 362.946 C 289.310 363.017,289.948 362.813,290.612 362.492 C 291.277 362.172,292.103 361.838,292.448 361.752 C 292.792 361.665,293.074 361.481,293.074 361.342 C 293.074 361.203,293.157 361.141,293.259 361.203 C 293.360 361.266,293.825 361.146,294.292 360.935 C 294.758 360.725,295.194 360.534,295.261 360.511 C 295.969 360.263,299.869 358.685,300.972 358.201 C 301.507 357.966,303.092 357.311,304.496 356.746 C 305.899 356.180,307.157 355.643,307.290 355.552 C 307.424 355.461,307.971 355.238,308.505 355.056 C 309.040 354.873,310.188 354.396,311.057 353.995 C 311.926 353.594,312.810 353.232,313.022 353.190 C 313.235 353.148,314.110 352.799,314.967 352.414 C 315.824 352.030,316.634 351.681,316.768 351.640 C 317.193 351.508,322.803 349.185,323.863 348.703 C 324.423 348.447,324.984 348.238,325.109 348.238 C 325.233 348.238,325.471 348.075,325.636 347.876 C 325.801 347.677,326.029 347.572,326.142 347.642 C 326.255 347.711,326.543 347.659,326.782 347.526 C 327.022 347.393,329.678 346.284,332.685 345.062 C 335.693 343.840,338.257 342.743,338.384 342.623 C 338.511 342.504,338.798 342.406,339.022 342.406 C 339.247 342.406,339.561 342.248,339.721 342.056 C 339.880 341.863,340.147 341.758,340.313 341.822 C 340.732 341.982,341.994 340.762,341.835 340.349 C 341.764 340.163,341.863 339.880,342.056 339.721 C 342.248 339.561,342.406 339.288,342.406 339.115 C 342.406 338.942,342.560 338.490,342.748 338.112 C 343.806 335.983,347.741 326.302,347.624 326.114 C 347.564 326.016,347.677 325.801,347.876 325.636 C 348.075 325.471,348.238 325.233,348.238 325.109 C 348.238 324.984,348.446 324.423,348.699 323.863 C 349.516 322.056,349.976 320.910,350.071 320.449 C 350.122 320.202,350.262 319.873,350.382 319.720 C 350.565 319.486,351.467 317.275,351.537 316.889 C 351.549 316.823,351.885 316.057,352.283 315.188 C 352.682 314.320,353.262 312.953,353.572 312.151 C 353.882 311.349,354.378 310.146,354.675 309.478 C 354.971 308.809,355.791 306.841,356.496 305.103 C 357.201 303.366,357.973 301.501,358.212 300.958 C 358.451 300.416,359.260 298.448,360.011 296.584 C 360.762 294.720,361.485 293.000,361.620 292.760 C 361.754 292.521,361.804 292.230,361.732 292.113 C 361.660 291.996,361.684 291.864,361.785 291.819 C 362.097 291.680,363.079 289.411,362.931 289.170 C 362.853 289.045,362.899 288.943,363.031 288.943 C 363.164 288.943,363.346 288.697,363.437 288.396 C 363.528 288.095,363.974 286.994,364.428 285.948 C 364.883 284.902,365.200 283.957,365.133 283.849 C 365.066 283.740,365.160 283.528,365.342 283.378 C 365.523 283.227,365.857 282.586,366.084 281.953 C 366.310 281.320,366.662 280.496,366.866 280.121 C 367.069 279.747,367.173 279.276,367.096 279.076 C 367.019 278.875,367.037 278.762,367.137 278.823 C 367.237 278.885,367.801 277.770,368.390 276.345 C 368.979 274.920,369.651 273.317,369.882 272.783 C 370.848 270.546,371.082 269.907,370.971 269.796 C 370.907 269.732,371.069 269.406,371.332 269.072 C 371.595 268.738,371.810 268.282,371.810 268.060 C 371.810 267.837,371.904 267.551,372.018 267.424 C 372.259 267.155,374.728 261.255,374.815 260.738 C 374.848 260.546,375.047 260.061,375.258 259.660 C 375.469 259.259,376.873 255.923,378.379 252.248 C 379.884 248.572,381.381 244.981,381.706 244.267 C 382.030 243.552,382.236 242.909,382.164 242.836 C 382.091 242.763,382.227 242.418,382.465 242.069 C 382.704 241.720,383.313 240.395,383.817 239.125 C 384.322 237.855,384.838 236.621,384.964 236.381 C 385.090 236.142,385.128 235.841,385.049 235.713 C 384.969 235.585,385.005 235.480,385.129 235.480 C 385.346 235.480,386.265 233.422,386.268 232.928 C 386.269 232.795,386.345 232.628,386.437 232.559 C 386.810 232.277,390.520 222.943,390.392 222.610 C 390.316 222.412,390.335 222.331,390.433 222.430 C 390.532 222.529,390.799 222.198,391.026 221.694 C 391.842 219.887,394.211 214.090,394.257 213.792 C 394.282 213.624,394.387 213.352,394.491 213.186 C 394.943 212.463,398.263 204.270,398.168 204.115 C 398.109 204.021,398.224 203.808,398.423 203.643 C 398.622 203.478,398.785 203.212,398.785 203.053 C 398.785 202.894,399.068 202.177,399.415 201.459 L 400.044 200.154 398.539 196.412 C 396.765 192.000,396.493 191.443,396.231 191.680 C 396.123 191.779,396.116 191.717,396.217 191.542 C 396.425 191.182,392.529 181.531,392.175 181.531 C 392.052 181.531,392.012 181.434,392.086 181.314 C 392.206 181.119,391.831 180.068,390.906 178.007 C 390.726 177.606,390.162 176.239,389.652 174.970 C 389.143 173.700,388.562 172.402,388.362 172.085 C 388.162 171.768,387.982 171.330,387.962 171.113 C 387.923 170.685,381.724 155.637,381.091 154.435 C 380.880 154.034,380.679 153.542,380.644 153.341 C 380.568 152.909,378.343 147.550,377.213 145.079 C 376.999 144.611,376.812 144.174,376.796 144.107 C 376.698 143.679,376.301 142.630,375.922 141.798 C 375.679 141.264,375.156 140.006,374.760 139.004 C 373.627 136.137,373.118 135.104,372.931 135.291 C 372.835 135.387,372.827 135.283,372.912 135.060 C 372.998 134.837,372.901 134.348,372.698 133.974 C 372.495 133.599,372.143 132.775,371.916 132.142 C 371.689 131.509,371.355 130.868,371.174 130.717 C 370.992 130.566,370.897 130.357,370.961 130.253 C 371.111 130.010,369.165 125.301,368.870 125.192 C 368.748 125.147,368.706 125.017,368.776 124.904 C 368.915 124.678,367.914 122.407,367.617 122.276 C 367.516 122.231,367.492 122.099,367.564 121.982 C 367.637 121.865,367.590 121.574,367.461 121.334 C 367.331 121.095,366.603 119.368,365.842 117.497 C 365.081 115.626,364.266 113.657,364.031 113.123 C 363.796 112.588,362.483 109.417,361.114 106.075 C 359.745 102.734,358.350 99.399,358.013 98.663 C 357.676 97.928,357.362 97.129,357.314 96.886 C 357.267 96.644,356.906 95.797,356.512 95.003 C 356.118 94.209,355.839 93.560,355.892 93.560 C 355.981 93.560,355.605 92.643,354.527 90.232 C 354.276 89.671,354.070 89.111,354.070 88.986 C 354.070 88.861,353.908 88.624,353.709 88.459 C 353.510 88.294,353.398 88.075,353.462 87.973 C 353.557 87.819,352.483 85.127,349.294 77.521 C 349.098 77.053,348.780 76.361,348.588 75.983 C 348.395 75.604,348.238 75.161,348.238 74.999 C 348.238 74.836,348.109 74.573,347.950 74.414 C 347.792 74.256,347.640 73.934,347.612 73.698 C 347.561 73.256,345.646 68.567,344.460 65.978 C 344.092 65.176,343.761 64.369,343.723 64.184 C 343.579 63.479,341.617 58.918,341.350 58.667 C 340.809 58.160,337.336 56.816,337.040 56.999 C 336.866 57.106,336.804 57.082,336.890 56.943 C 337.021 56.731,332.712 54.807,332.079 54.795 C 331.944 54.792,331.564 54.601,331.234 54.370 C 330.903 54.138,330.461 53.949,330.250 53.949 C 330.039 53.949,329.762 53.858,329.635 53.748 C 329.389 53.533,323.443 51.038,322.914 50.927 C 322.742 50.891,321.863 50.516,320.963 50.095 C 320.062 49.674,319.133 49.297,318.897 49.256 C 318.662 49.216,318.141 49.011,317.740 48.799 C 317.339 48.588,314.933 47.568,312.394 46.532 C 309.854 45.497,307.209 44.391,306.516 44.074 C 305.822 43.758,305.186 43.499,305.103 43.499 C 305.019 43.499,304.353 43.226,303.622 42.892 C 302.892 42.558,302.184 42.284,302.050 42.284 C 301.916 42.284,301.252 42.004,300.575 41.660 C 299.898 41.317,299.287 41.093,299.218 41.163 C 299.148 41.232,298.933 41.130,298.739 40.936 C 298.545 40.742,298.120 40.583,297.796 40.583 C 297.471 40.583,297.205 40.482,297.205 40.359 C 297.205 40.148,295.665 39.502,295.140 39.494 C 295.006 39.491,294.840 39.415,294.771 39.324 C 294.702 39.233,292.460 38.264,289.789 37.170 C 287.118 36.077,284.069 34.807,283.012 34.348 C 281.955 33.889,280.938 33.571,280.751 33.643 C 280.565 33.715,280.472 33.676,280.545 33.558 C 280.657 33.377,276.912 31.707,275.992 31.528 C 275.831 31.496,275.644 31.409,275.577 31.335 C 275.401 31.139,266.963 27.680,266.492 27.611 C 266.273 27.579,265.965 27.423,265.806 27.264 C 265.647 27.105,265.326 26.974,265.093 26.974 C 264.861 26.974,264.598 26.858,264.510 26.715 C 264.422 26.572,264.196 26.514,264.009 26.586 C 263.822 26.658,263.670 26.628,263.670 26.520 C 263.670 26.412,259.596 24.650,254.617 22.604 C 249.639 20.559,244.988 18.623,244.283 18.302 C 243.577 17.982,242.894 17.785,242.764 17.866 C 242.634 17.946,242.527 17.913,242.527 17.793 C 242.527 17.497,241.331 16.970,241.051 17.144 C 240.927 17.220,240.826 17.175,240.826 17.044 C 240.826 16.857,239.797 16.384,238.882 16.150 C 238.815 16.133,238.273 15.890,237.678 15.610 C 237.082 15.329,236.508 15.154,236.402 15.219 C 236.296 15.285,236.209 15.250,236.208 15.142 C 236.208 15.034,235.688 14.742,235.054 14.494 C 234.419 14.246,233.408 13.821,232.807 13.551 C 232.205 13.280,231.007 12.792,230.144 12.466 C 229.281 12.141,228.133 11.673,227.592 11.429 C 226.063 10.735,221.777 8.952,221.507 8.896 C 221.373 8.869,221.045 8.726,220.778 8.579 C 220.510 8.432,220.073 8.273,219.806 8.226 C 219.538 8.179,219.265 8.076,219.198 7.997 C 219.007 7.772,210.621 4.316,210.142 4.266 C 209.906 4.241,209.583 4.091,209.425 3.933 C 209.267 3.775,208.962 3.645,208.748 3.645 C 208.535 3.645,208.256 3.548,208.129 3.429 C 207.834 3.153,200.163 -0.008,199.862 0.023 C 199.737 0.035,198.597 0.493,197.327 1.040 M197.027 32.382 C 197.063 45.647,197.158 64.661,197.238 74.634 L 197.384 92.767 196.201 92.939 C 194.364 93.206,190.805 94.468,189.099 95.458 C 188.249 95.951,187.326 96.485,187.047 96.643 C 186.769 96.802,186.152 97.259,185.677 97.660 C 185.201 98.060,184.471 98.666,184.054 99.006 C 183.013 99.856,180.827 102.601,179.731 104.435 C 179.231 105.270,178.789 105.954,178.748 105.954 C 178.708 105.954,178.292 105.794,177.825 105.599 C 177.358 105.404,176.922 105.297,176.858 105.362 C 176.793 105.427,176.602 105.313,176.433 105.109 C 176.264 104.905,175.926 104.739,175.683 104.739 C 175.440 104.739,175.169 104.622,175.081 104.479 C 174.993 104.336,174.775 104.276,174.596 104.344 C 174.418 104.412,174.238 104.371,174.196 104.252 C 174.153 104.133,171.877 103.117,169.137 101.993 C 166.397 100.869,163.937 99.857,163.670 99.745 C 163.402 99.633,163.062 99.534,162.913 99.524 C 162.764 99.515,162.490 99.390,162.305 99.249 C 161.626 98.728,156.442 96.727,156.172 96.881 C 156.019 96.969,155.977 96.948,156.080 96.835 C 156.297 96.596,153.628 95.449,153.311 95.645 C 153.194 95.717,153.098 95.678,153.098 95.558 C 153.098 95.261,151.902 94.735,151.622 94.908 C 151.498 94.984,151.397 94.940,151.397 94.808 C 151.397 94.621,150.368 94.148,149.453 93.914 C 149.386 93.897,148.844 93.654,148.249 93.374 C 147.653 93.094,147.079 92.918,146.973 92.984 C 146.867 93.049,146.780 93.014,146.779 92.906 C 146.779 92.798,146.259 92.507,145.625 92.258 C 144.990 92.010,144.034 91.613,143.499 91.377 C 142.965 91.140,141.652 90.594,140.583 90.163 C 139.514 89.732,138.311 89.236,137.910 89.061 C 136.056 88.253,132.296 86.706,132.078 86.661 C 131.944 86.633,131.616 86.490,131.349 86.343 C 131.081 86.196,130.644 86.037,130.377 85.990 C 130.109 85.944,129.836 85.842,129.769 85.765 C 129.568 85.534,121.176 82.068,120.713 82.025 C 120.477 82.003,120.155 81.856,119.996 81.697 C 119.838 81.539,119.533 81.409,119.320 81.409 C 119.106 81.409,118.827 81.313,118.700 81.195 C 118.400 80.916,107.164 76.249,106.672 76.199 C 106.466 76.178,106.031 75.975,105.707 75.747 C 105.382 75.520,104.944 75.334,104.733 75.334 C 104.522 75.334,104.246 75.244,104.119 75.133 C 103.870 74.916,97.917 72.420,97.398 72.314 C 97.225 72.279,96.328 71.902,95.404 71.476 C 94.480 71.050,93.551 70.671,93.338 70.634 C 93.126 70.597,92.515 70.345,91.981 70.074 C 91.446 69.803,90.352 69.330,89.550 69.023 C 88.748 68.716,87.546 68.223,86.877 67.927 C 86.209 67.632,84.897 67.089,83.961 66.721 C 83.026 66.352,82.086 65.963,81.874 65.855 C 81.661 65.747,80.349 65.205,78.958 64.652 C 77.566 64.098,75.847 63.375,75.137 63.045 C 74.426 62.715,73.743 62.508,73.618 62.585 C 73.492 62.663,73.390 62.612,73.390 62.473 C 73.390 62.334,73.108 62.150,72.763 62.063 C 72.418 61.977,71.641 61.667,71.036 61.375 L 69.935 60.844 70.630 60.382 C 71.012 60.129,71.434 59.917,71.569 59.912 C 72.222 59.888,76.509 57.970,76.380 57.759 C 76.296 57.624,76.355 57.596,76.514 57.694 C 76.781 57.859,83.208 55.355,83.706 54.892 C 83.833 54.775,84.120 54.678,84.344 54.678 C 84.569 54.678,84.887 54.515,85.052 54.316 C 85.218 54.117,85.437 54.006,85.540 54.070 C 85.694 54.165,89.695 52.589,92.953 51.150 C 93.354 50.973,93.928 50.758,94.228 50.671 C 94.529 50.585,94.775 50.406,94.775 50.273 C 94.775 50.141,94.858 50.083,94.960 50.146 C 95.061 50.209,95.526 50.090,95.993 49.881 C 96.459 49.673,96.950 49.473,97.084 49.437 C 97.380 49.358,101.613 47.617,102.795 47.089 C 103.262 46.880,104.520 46.356,105.589 45.925 C 106.659 45.494,107.971 44.948,108.505 44.713 C 109.040 44.478,109.860 44.143,110.328 43.968 C 110.796 43.793,111.889 43.324,112.758 42.926 C 113.627 42.528,114.392 42.189,114.459 42.172 C 115.346 41.952,116.403 41.466,116.403 41.279 C 116.403 41.148,116.510 41.106,116.639 41.186 C 116.769 41.267,117.234 41.141,117.672 40.907 C 118.110 40.673,118.524 40.474,118.591 40.465 C 119.299 40.366,121.204 39.469,121.092 39.287 C 121.011 39.157,121.061 39.121,121.201 39.208 C 121.451 39.363,126.647 37.348,127.311 36.839 C 127.496 36.697,127.770 36.573,127.919 36.564 C 128.068 36.555,128.518 36.413,128.919 36.249 C 136.684 33.077,139.247 31.975,139.247 31.809 C 139.247 31.698,139.400 31.666,139.587 31.737 C 139.774 31.809,139.999 31.751,140.087 31.608 C 140.175 31.466,140.438 31.349,140.670 31.349 C 140.903 31.349,141.229 31.213,141.395 31.048 C 141.560 30.882,141.828 30.746,141.990 30.744 C 142.321 30.741,150.965 27.198,151.154 26.988 C 151.221 26.914,151.440 26.820,151.640 26.780 C 152.697 26.568,156.226 24.934,156.093 24.718 C 156.002 24.571,156.060 24.544,156.235 24.652 C 156.544 24.843,157.091 24.661,159.605 23.529 C 160.444 23.152,161.184 22.843,161.249 22.843 C 161.455 22.843,168.037 20.078,168.165 19.938 C 168.232 19.865,168.451 19.775,168.651 19.737 C 169.397 19.595,170.352 19.132,170.352 18.911 C 170.352 18.786,170.447 18.742,170.562 18.813 C 170.832 18.979,172.783 18.218,172.783 17.946 C 172.783 17.833,173.048 17.740,173.373 17.740 C 173.697 17.740,174.122 17.581,174.316 17.387 C 174.510 17.193,174.721 17.086,174.785 17.150 C 174.849 17.214,175.436 17.026,176.090 16.732 C 176.743 16.439,177.606 16.075,178.007 15.924 C 178.408 15.773,179.064 15.508,179.465 15.335 C 182.762 13.913,196.528 8.277,196.719 8.271 C 196.879 8.266,196.984 16.502,197.027 32.382 M204.848 8.846 C 205.639 9.167,206.347 9.368,206.423 9.292 C 206.499 9.216,206.561 9.259,206.561 9.388 C 206.561 9.517,206.971 9.763,207.473 9.935 C 207.974 10.106,208.724 10.400,209.139 10.586 C 211.272 11.545,215.241 13.152,215.617 13.210 C 215.853 13.246,216.175 13.405,216.334 13.563 C 216.492 13.722,216.747 13.852,216.901 13.852 C 217.054 13.852,217.497 14.008,217.885 14.199 C 218.273 14.390,222.090 15.985,226.367 17.742 C 230.644 19.500,234.607 21.148,235.174 21.405 C 235.740 21.661,236.276 21.871,236.365 21.871 C 236.454 21.871,237.114 22.149,237.833 22.489 C 238.551 22.829,239.245 23.041,239.375 22.961 C 239.505 22.880,239.611 22.913,239.611 23.033 C 239.611 23.330,240.807 23.856,241.087 23.683 C 241.211 23.606,241.312 23.643,241.312 23.764 C 241.312 24.046,243.255 24.817,243.533 24.645 C 243.648 24.574,243.742 24.618,243.742 24.744 C 243.742 24.964,244.698 25.428,245.443 25.569 C 245.644 25.607,245.863 25.696,245.930 25.766 C 245.996 25.837,246.543 26.098,247.145 26.346 C 247.746 26.594,248.569 26.940,248.973 27.114 C 249.378 27.289,250.581 27.778,251.646 28.202 C 252.712 28.626,254.022 29.169,254.557 29.409 C 256.337 30.207,262.085 32.538,262.454 32.612 C 262.655 32.652,262.874 32.749,262.940 32.828 C 263.120 33.039,271.761 36.573,272.105 36.576 C 272.267 36.578,272.535 36.715,272.700 36.880 C 272.866 37.046,273.176 37.181,273.390 37.181 C 273.604 37.181,273.883 37.276,274.010 37.392 C 274.137 37.508,276.701 38.607,279.708 39.834 C 282.716 41.060,285.372 42.172,285.611 42.304 C 285.851 42.436,286.139 42.487,286.252 42.417 C 286.365 42.347,286.593 42.453,286.758 42.652 C 286.923 42.851,287.160 43.013,287.285 43.013 C 287.410 43.013,287.970 43.221,288.531 43.475 C 290.912 44.554,292.666 45.181,292.899 45.037 C 293.037 44.952,293.083 44.989,293.003 45.119 C 292.891 45.300,294.591 46.107,295.504 46.307 C 295.571 46.322,296.382 46.684,297.306 47.111 C 298.229 47.539,299.159 47.923,299.371 47.965 C 299.583 48.007,300.468 48.370,301.337 48.771 C 302.205 49.172,303.354 49.649,303.888 49.831 C 304.423 50.013,304.970 50.237,305.103 50.328 C 305.237 50.419,306.495 50.953,307.898 51.515 C 309.301 52.076,310.832 52.708,311.300 52.919 C 312.442 53.432,316.706 55.188,317.011 55.270 C 317.145 55.305,317.636 55.505,318.102 55.714 C 318.569 55.922,319.033 56.041,319.135 55.979 C 319.236 55.916,319.320 55.978,319.320 56.117 C 319.320 56.256,319.602 56.441,319.946 56.527 C 320.291 56.614,321.117 56.947,321.781 57.267 C 322.446 57.588,323.084 57.792,323.200 57.721 C 323.315 57.649,323.446 57.689,323.491 57.808 C 323.579 58.042,327.711 59.827,328.311 59.890 C 328.830 59.945,330.012 60.761,330.012 61.065 C 330.012 61.205,329.949 61.257,329.872 61.180 C 329.734 61.043,323.321 63.585,321.871 64.351 C 321.470 64.563,320.949 64.769,320.714 64.809 C 320.478 64.850,319.549 65.227,318.648 65.648 C 317.748 66.069,316.870 66.444,316.697 66.480 C 316.168 66.591,310.222 69.086,309.976 69.301 C 309.849 69.411,309.572 69.502,309.361 69.502 C 309.151 69.502,308.708 69.691,308.378 69.922 C 308.047 70.154,307.667 70.345,307.532 70.348 C 307.081 70.356,302.572 72.254,302.660 72.397 C 302.709 72.476,302.513 72.552,302.225 72.567 C 301.563 72.602,294.543 75.516,294.026 75.969 C 293.815 76.155,293.587 76.252,293.519 76.184 C 293.417 76.082,289.277 77.723,286.148 79.105 C 285.747 79.282,285.173 79.497,284.872 79.584 C 284.572 79.670,284.326 79.850,284.326 79.982 C 284.326 80.115,284.243 80.172,284.141 80.109 C 284.039 80.046,283.575 80.165,283.108 80.374 C 282.642 80.582,282.151 80.782,282.017 80.818 C 281.721 80.897,277.488 82.638,276.306 83.166 C 275.838 83.375,274.581 83.899,273.512 84.330 C 272.442 84.762,271.130 85.307,270.595 85.542 C 270.061 85.777,269.241 86.112,268.773 86.287 C 268.305 86.462,267.211 86.931,266.343 87.329 C 265.474 87.727,264.708 88.066,264.642 88.083 C 263.755 88.303,262.697 88.789,262.697 88.976 C 262.697 89.107,262.591 89.149,262.462 89.069 C 262.332 88.989,261.867 89.114,261.429 89.348 C 260.990 89.582,260.577 89.781,260.510 89.790 C 259.802 89.889,257.897 90.786,258.009 90.968 C 258.089 91.098,258.043 91.136,257.905 91.051 C 257.672 90.906,255.918 91.533,253.537 92.612 C 252.976 92.866,252.416 93.074,252.291 93.074 C 252.166 93.074,251.929 93.237,251.764 93.436 C 251.599 93.635,251.371 93.741,251.258 93.671 C 251.145 93.601,250.857 93.653,250.617 93.787 C 250.378 93.920,247.722 95.032,244.714 96.257 C 241.707 97.482,239.143 98.579,239.016 98.695 C 238.889 98.811,238.610 98.906,238.396 98.906 C 238.182 98.906,237.872 99.042,237.706 99.207 C 237.541 99.373,237.273 99.510,237.111 99.511 C 236.779 99.514,228.135 103.057,227.947 103.267 C 227.880 103.341,227.661 103.435,227.461 103.475 C 226.863 103.593,223.470 105.014,223.220 105.250 C 222.575 105.859,221.969 105.414,220.662 103.373 C 218.387 99.823,211.822 94.421,209.605 94.276 C 209.540 94.272,209.089 94.102,208.603 93.899 C 208.117 93.696,207.568 93.588,207.384 93.659 C 207.199 93.730,207.047 93.701,207.047 93.594 C 207.047 93.381,204.890 92.831,204.052 92.831 L 203.524 92.830 203.459 72.964 C 203.423 62.038,203.327 43.010,203.245 30.680 C 203.164 18.351,203.168 8.262,203.255 8.262 C 203.341 8.262,204.058 8.525,204.848 8.846 M334.790 66.923 C 334.736 67.643,334.634 68.327,334.564 68.442 C 334.447 68.633,333.888 71.858,333.769 73.026 C 333.742 73.293,333.653 73.676,333.572 73.876 C 333.491 74.077,333.381 74.733,333.327 75.334 C 333.273 75.936,333.164 76.592,333.085 76.792 C 332.820 77.466,331.957 82.915,332.083 83.119 C 332.151 83.229,332.109 83.381,331.988 83.455 C 331.791 83.577,331.588 84.547,331.324 86.634 C 331.273 87.035,331.120 87.909,330.983 88.576 C 330.846 89.243,330.784 89.919,330.845 90.079 C 330.907 90.239,330.866 90.404,330.755 90.446 C 330.644 90.488,330.490 91.015,330.412 91.616 C 330.334 92.217,330.159 93.326,330.021 94.079 C 329.884 94.832,329.730 95.762,329.681 96.145 C 329.631 96.527,329.533 97.005,329.463 97.205 C 329.199 97.965,328.787 100.881,328.915 101.087 C 328.988 101.206,328.950 101.364,328.829 101.438 C 328.648 101.550,328.134 104.222,327.939 106.075 C 327.911 106.343,327.821 106.725,327.740 106.926 C 327.659 107.126,327.548 107.783,327.494 108.384 C 327.440 108.985,327.332 109.642,327.254 109.842 C 327.052 110.357,326.132 115.917,326.194 116.243 C 326.222 116.392,325.972 116.549,325.638 116.592 C 325.304 116.635,324.866 116.734,324.666 116.812 C 324.465 116.890,323.919 117.000,323.451 117.056 C 320.504 117.408,316.236 120.851,314.681 124.130 L 313.852 125.878 312.029 125.750 C 311.027 125.680,309.277 125.520,308.141 125.393 C 305.545 125.104,303.159 124.901,300.967 124.784 C 300.028 124.734,299.098 124.639,298.901 124.574 C 298.704 124.508,296.574 124.283,294.168 124.073 C 288.885 123.613,275.271 122.364,271.567 122.000 C 270.097 121.855,268.183 121.691,267.315 121.636 C 266.446 121.580,264.042 121.360,261.973 121.146 C 259.904 120.932,257.990 120.778,257.720 120.804 C 257.451 120.829,257.066 120.789,256.865 120.714 C 256.665 120.639,254.478 120.404,252.005 120.192 C 249.532 119.979,246.962 119.759,246.294 119.701 C 245.626 119.643,242.181 119.321,238.639 118.985 C 235.097 118.649,231.434 118.312,230.498 118.238 C 227.651 118.011,225.907 117.838,225.372 117.731 C 224.907 117.637,224.839 117.369,224.593 114.698 C 224.334 111.876,224.385 110.930,224.783 111.176 C 225.035 111.332,228.676 109.837,228.676 109.577 C 228.676 109.464,228.829 109.430,229.016 109.502 C 229.202 109.573,229.428 109.515,229.516 109.373 C 229.604 109.230,229.867 109.113,230.099 109.113 C 230.332 109.113,230.653 108.983,230.812 108.824 C 230.971 108.665,231.291 108.507,231.524 108.473 C 232.010 108.401,240.400 104.956,240.583 104.752 C 240.650 104.678,240.837 104.591,240.998 104.560 C 241.918 104.380,245.663 102.710,245.551 102.529 C 245.478 102.411,245.567 102.371,245.748 102.441 C 245.929 102.510,247.220 102.085,248.616 101.496 C 250.012 100.907,252.576 99.842,254.313 99.129 C 256.051 98.417,257.527 97.774,257.594 97.702 C 257.661 97.629,257.880 97.539,258.080 97.501 C 258.826 97.360,259.781 96.896,259.781 96.675 C 259.781 96.550,259.876 96.506,259.991 96.577 C 260.260 96.744,262.211 95.982,262.211 95.710 C 262.211 95.597,262.477 95.504,262.802 95.504 C 263.126 95.504,263.551 95.345,263.745 95.151 C 263.939 94.957,264.154 94.855,264.224 94.925 C 264.293 94.994,264.904 94.770,265.581 94.427 C 266.258 94.084,266.922 93.803,267.056 93.803 C 267.191 93.803,267.898 93.530,268.629 93.196 C 269.359 92.861,270.025 92.588,270.109 92.588 C 270.193 92.588,270.828 92.331,271.522 92.018 C 272.215 91.704,274.751 90.646,277.157 89.668 C 279.563 88.689,281.968 87.668,282.503 87.397 C 283.038 87.127,283.668 86.873,283.903 86.832 C 284.139 86.791,285.068 86.413,285.969 85.992 C 286.870 85.571,287.745 85.197,287.914 85.162 C 288.467 85.045,294.405 82.561,294.642 82.347 C 294.769 82.232,295.045 82.139,295.256 82.139 C 295.467 82.139,295.905 81.953,296.229 81.725 C 296.554 81.498,296.988 81.296,297.195 81.276 C 297.799 81.218,302.056 79.403,301.958 79.245 C 301.909 79.166,302.105 79.088,302.393 79.073 C 302.970 79.043,310.013 76.162,310.531 75.745 C 310.709 75.602,311.037 75.466,311.260 75.444 C 311.882 75.384,316.028 73.606,316.120 73.361 C 316.165 73.242,316.296 73.202,316.412 73.274 C 316.527 73.345,317.165 73.141,317.830 72.820 C 318.495 72.500,319.320 72.166,319.665 72.080 C 320.010 71.993,320.292 71.809,320.292 71.670 C 320.292 71.531,320.375 71.469,320.476 71.531 C 320.578 71.594,321.043 71.475,321.509 71.267 C 321.976 71.058,322.467 70.858,322.600 70.822 C 322.905 70.740,327.169 68.985,328.311 68.472 C 328.779 68.261,330.310 67.630,331.713 67.070 C 333.117 66.510,334.369 65.953,334.496 65.832 C 334.872 65.476,334.893 65.553,334.790 66.923 M67.700 66.837 C 69.025 67.376,70.164 67.831,70.231 67.847 C 70.298 67.862,71.054 68.190,71.911 68.575 C 72.768 68.959,73.643 69.308,73.855 69.350 C 74.067 69.392,74.951 69.755,75.820 70.156 C 76.689 70.557,77.837 71.034,78.372 71.216 C 78.906 71.398,79.453 71.622,79.587 71.713 C 79.721 71.803,80.978 72.340,82.382 72.906 C 83.785 73.472,85.371 74.126,85.905 74.361 C 87.008 74.846,90.908 76.423,91.616 76.671 C 91.683 76.695,92.119 76.886,92.586 77.096 C 93.052 77.306,93.517 77.426,93.618 77.364 C 93.720 77.301,93.803 77.363,93.803 77.502 C 93.803 77.641,94.085 77.826,94.430 77.912 C 94.774 77.999,95.600 78.332,96.265 78.653 C 96.930 78.973,97.568 79.177,97.683 79.106 C 97.798 79.035,97.930 79.076,97.974 79.198 C 98.078 79.480,102.826 81.459,102.994 81.291 C 103.063 81.222,103.293 81.317,103.504 81.503 C 104.020 81.957,111.041 84.871,111.702 84.906 C 111.990 84.921,112.186 84.998,112.137 85.077 C 112.039 85.236,116.295 87.050,116.900 87.108 C 117.107 87.128,117.541 87.330,117.866 87.558 C 118.190 87.785,118.628 87.971,118.839 87.971 C 119.050 87.971,119.326 88.064,119.453 88.178 C 119.722 88.419,125.622 90.888,126.139 90.976 C 126.331 91.008,126.817 91.207,127.217 91.418 C 127.618 91.629,131.719 93.354,136.330 95.252 C 140.942 97.149,145.178 98.912,145.745 99.169 C 146.311 99.425,146.847 99.635,146.936 99.635 C 147.025 99.635,147.693 99.917,148.420 100.261 C 149.147 100.605,149.799 100.829,149.869 100.758 C 149.940 100.688,150.156 100.790,150.350 100.984 C 150.544 101.178,150.969 101.337,151.293 101.337 C 151.618 101.337,151.883 101.429,151.883 101.543 C 151.883 101.815,153.834 102.576,154.104 102.409 C 154.219 102.338,154.313 102.382,154.313 102.508 C 154.313 102.728,155.269 103.192,156.015 103.333 C 156.215 103.371,156.434 103.462,156.501 103.535 C 156.629 103.675,163.211 106.440,163.416 106.440 C 163.482 106.440,164.222 106.749,165.061 107.126 C 167.575 108.257,168.122 108.440,168.431 108.248 C 168.606 108.140,168.664 108.167,168.573 108.314 C 168.439 108.530,171.969 110.165,173.026 110.377 C 173.226 110.417,173.445 110.508,173.512 110.579 C 173.578 110.650,174.351 111.010,175.229 111.377 L 176.824 112.046 176.644 113.313 C 176.544 114.010,176.455 115.153,176.445 115.852 C 176.430 116.966,176.360 117.138,175.881 117.244 C 175.389 117.352,156.019 119.185,152.921 119.416 C 148.055 119.779,139.113 120.669,139.056 120.796 C 139.018 120.881,138.744 120.905,138.448 120.851 C 138.152 120.796,135.012 121.028,131.470 121.366 C 127.928 121.704,124.265 122.042,123.329 122.118 C 122.394 122.193,120.535 122.365,119.198 122.499 C 117.861 122.634,116.166 122.797,115.431 122.863 C 114.696 122.928,112.892 123.095,111.422 123.235 C 109.951 123.374,108.202 123.533,107.533 123.589 C 102.300 124.025,97.509 124.487,97.205 124.585 C 95.868 125.018,93.780 124.781,93.637 124.180 C 93.558 123.846,93.377 123.354,93.235 123.086 C 93.093 122.819,92.944 122.406,92.904 122.168 C 92.804 121.566,91.607 119.233,91.298 119.035 C 91.157 118.946,91.018 118.704,90.988 118.497 C 90.710 116.605,82.213 109.605,81.301 110.517 C 81.227 110.591,81.166 110.540,81.166 110.404 C 81.166 110.084,77.616 109.025,77.147 109.204 C 76.952 109.279,76.792 109.248,76.792 109.134 C 76.792 109.020,75.870 108.851,74.742 108.757 L 72.692 108.586 72.414 107.331 C 72.262 106.640,72.082 105.640,72.017 105.107 C 71.951 104.574,71.796 104.018,71.673 103.870 C 71.551 103.722,71.504 103.546,71.571 103.480 C 71.637 103.413,71.521 102.385,71.312 101.194 C 71.103 100.002,70.720 97.825,70.460 96.355 C 70.200 94.885,69.873 92.975,69.732 92.111 C 69.591 91.248,69.373 90.418,69.248 90.267 C 69.123 90.115,69.078 89.933,69.150 89.862 C 69.221 89.791,69.160 89.035,69.014 88.183 C 68.868 87.331,68.716 86.416,68.676 86.148 C 68.406 84.346,67.972 81.959,67.859 81.652 C 67.784 81.452,67.740 81.208,67.761 81.110 C 67.781 81.013,67.695 80.411,67.569 79.774 C 67.444 79.136,67.049 76.920,66.692 74.848 C 66.335 72.776,65.947 70.962,65.830 70.816 C 65.713 70.670,65.680 70.488,65.756 70.412 C 65.832 70.336,65.722 69.354,65.511 68.229 C 65.106 66.068,65.079 65.857,65.209 65.857 C 65.254 65.857,66.375 66.298,67.700 66.837 M60.134 73.991 C 60.226 74.725,60.405 75.390,60.531 75.469 C 60.658 75.547,60.701 75.708,60.628 75.827 C 60.500 76.033,60.912 78.948,61.177 79.708 C 61.246 79.909,61.344 80.386,61.394 80.769 C 61.444 81.152,61.597 82.082,61.734 82.835 C 61.872 83.588,62.048 84.696,62.127 85.298 C 62.205 85.899,62.338 86.446,62.422 86.513 C 62.507 86.580,62.613 87.236,62.659 87.971 C 62.705 88.706,62.840 89.427,62.961 89.573 C 63.081 89.719,63.131 89.887,63.072 89.946 C 63.012 90.005,63.287 91.854,63.683 94.055 C 64.078 96.255,64.463 98.489,64.539 99.018 C 64.614 99.547,64.736 100.077,64.810 100.197 C 64.884 100.317,64.988 100.969,65.041 101.647 C 65.094 102.324,65.243 103.006,65.373 103.162 C 65.503 103.319,65.555 103.501,65.489 103.568 C 65.360 103.697,66.010 107.775,66.257 108.384 C 66.505 108.994,66.495 109.842,66.240 109.842 C 65.780 109.842,61.482 112.042,61.482 112.278 C 61.482 112.408,61.330 112.515,61.144 112.515 C 60.958 112.515,60.742 112.679,60.665 112.880 C 60.589 113.080,60.373 113.244,60.187 113.244 C 58.569 113.244,52.235 122.773,52.828 124.317 C 52.898 124.500,52.867 124.705,52.759 124.772 C 51.898 125.304,51.878 134.762,52.737 135.070 C 52.854 135.112,52.893 135.294,52.825 135.473 C 52.560 136.163,54.873 141.138,55.285 140.765 C 55.395 140.665,55.418 140.700,55.337 140.843 C 55.256 140.987,55.396 141.443,55.648 141.858 L 56.106 142.611 36.619 162.149 C 25.902 172.894,16.156 182.689,14.963 183.914 C 12.339 186.609,12.357 186.617,13.726 183.350 C 14.331 181.905,14.774 180.672,14.711 180.608 C 14.647 180.544,14.791 180.207,15.029 179.857 C 15.268 179.508,15.876 178.183,16.381 176.914 C 16.886 175.644,17.402 174.409,17.528 174.170 C 17.653 173.931,17.692 173.630,17.612 173.502 C 17.533 173.373,17.569 173.269,17.693 173.269 C 17.910 173.269,18.829 171.210,18.832 170.717 C 18.833 170.583,18.909 170.417,19.001 170.347 C 19.373 170.065,23.083 160.732,22.956 160.399 C 22.880 160.201,22.896 160.117,22.991 160.213 C 23.087 160.308,23.373 159.922,23.628 159.355 C 24.516 157.375,26.775 151.882,26.825 151.580 C 26.853 151.413,26.997 151.057,27.144 150.790 C 27.595 149.968,30.633 142.554,30.705 142.099 C 30.742 141.863,30.902 141.540,31.060 141.382 C 31.219 141.223,31.349 140.968,31.349 140.815 C 31.349 140.662,31.512 140.209,31.711 139.810 C 32.398 138.434,36.510 128.432,36.556 128.028 C 36.581 127.805,36.714 127.477,36.850 127.299 C 37.085 126.992,40.334 119.261,40.455 118.723 C 40.486 118.583,40.730 117.977,40.998 117.375 C 41.266 116.774,41.842 115.407,42.278 114.338 C 42.714 113.269,43.151 112.229,43.249 112.029 C 43.348 111.828,44.165 109.860,45.066 107.654 C 45.967 105.449,46.848 103.317,47.025 102.916 C 47.201 102.515,48.015 100.547,48.833 98.542 C 49.651 96.537,50.430 94.701,50.563 94.462 C 50.697 94.222,50.747 93.931,50.675 93.814 C 50.603 93.697,50.630 93.565,50.735 93.520 C 50.841 93.475,51.296 92.564,51.747 91.495 C 52.198 90.425,52.934 88.695,53.383 87.649 C 53.831 86.603,54.143 85.658,54.076 85.550 C 54.009 85.441,54.117 85.218,54.316 85.052 C 54.515 84.887,54.678 84.610,54.678 84.437 C 54.678 84.264,54.836 83.812,55.028 83.434 C 55.458 82.590,55.853 81.665,57.985 76.512 C 59.807 72.109,59.888 72.015,60.134 73.991 M341.318 74.781 C 341.538 75.286,341.892 76.081,342.106 76.549 C 342.320 77.017,342.508 77.454,342.523 77.521 C 342.619 77.938,343.032 79.024,343.493 80.073 C 343.786 80.741,344.509 82.454,345.098 83.878 C 345.687 85.303,346.251 86.418,346.350 86.357 C 346.450 86.295,346.469 86.409,346.392 86.609 C 346.315 86.810,346.418 87.280,346.622 87.654 C 346.825 88.029,347.177 88.853,347.403 89.486 C 347.630 90.119,347.964 90.760,348.146 90.911 C 348.327 91.062,348.423 91.271,348.358 91.375 C 348.208 91.618,350.154 96.328,350.450 96.436 C 350.572 96.481,350.614 96.611,350.544 96.724 C 350.404 96.950,351.406 99.221,351.703 99.352 C 351.804 99.397,351.827 99.530,351.755 99.646 C 351.683 99.763,351.730 100.055,351.859 100.294 C 351.988 100.533,352.717 102.260,353.477 104.131 C 354.238 106.002,355.053 107.971,355.289 108.505 C 355.524 109.040,356.836 112.211,358.205 115.553 C 359.574 118.894,360.971 122.230,361.310 122.965 C 361.648 123.700,361.936 124.356,361.949 124.423 C 362.028 124.828,362.924 127.021,363.105 127.253 C 363.225 127.407,363.365 127.735,363.416 127.982 C 363.511 128.443,363.972 129.590,364.788 131.396 C 365.042 131.957,365.249 132.518,365.249 132.642 C 365.249 132.767,365.412 133.004,365.611 133.169 C 365.810 133.334,365.921 133.553,365.858 133.655 C 365.763 133.809,366.836 136.502,370.025 144.107 C 370.222 144.575,370.539 145.267,370.732 145.645 C 370.924 146.024,371.081 146.467,371.081 146.630 C 371.081 146.793,371.211 147.055,371.369 147.214 C 371.528 147.372,371.680 147.695,371.707 147.931 C 371.761 148.395,374.681 155.517,375.223 156.505 C 375.405 156.837,375.582 157.274,375.616 157.478 C 375.667 157.781,377.795 162.971,378.919 165.535 C 379.076 165.893,379.289 166.134,379.393 166.069 C 379.496 166.005,379.525 166.100,379.456 166.279 C 379.388 166.458,380.332 169.006,381.556 171.941 C 382.780 174.877,383.986 177.800,384.236 178.437 C 384.487 179.074,384.790 179.785,384.911 180.017 C 385.148 180.471,386.392 183.540,387.144 185.528 C 387.542 186.580,352.971 152.398,339.437 138.357 L 338.533 137.419 339.165 136.099 C 339.512 135.373,339.824 134.499,339.857 134.157 C 339.890 133.815,340.013 133.317,340.129 133.050 C 340.245 132.783,340.340 131.525,340.340 130.255 C 340.340 128.985,340.245 127.728,340.129 127.461 C 340.013 127.193,339.890 126.688,339.856 126.338 C 339.679 124.517,335.411 118.622,334.456 118.879 C 334.351 118.907,333.724 118.581,333.063 118.153 C 332.402 117.725,331.978 117.375,332.120 117.375 C 332.263 117.375,332.438 116.911,332.510 116.343 C 332.582 115.775,332.983 113.355,333.401 110.965 C 333.820 108.576,334.104 106.563,334.033 106.492 C 333.962 106.421,334.000 106.244,334.117 106.098 C 334.234 105.952,334.622 104.137,334.979 102.066 C 335.336 99.994,335.730 97.777,335.856 97.140 C 335.982 96.502,336.068 95.901,336.047 95.803 C 336.027 95.706,336.071 95.462,336.145 95.261 C 336.262 94.947,336.750 92.249,336.958 90.765 C 336.995 90.498,337.192 89.360,337.394 88.236 C 337.597 87.112,337.751 86.128,337.737 86.049 C 337.723 85.970,337.772 85.741,337.846 85.541 C 337.920 85.340,338.157 84.137,338.374 82.868 C 338.591 81.598,339.042 79.006,339.376 77.108 C 339.710 75.211,339.965 73.570,339.941 73.463 C 339.774 72.701,340.312 72.419,340.605 73.116 C 340.778 73.527,341.099 74.277,341.318 74.781 M177.757 124.713 C 179.276 129.357,185.781 137.303,188.064 137.303 C 188.569 137.303,187.969 139.134,186.032 143.499 C 185.246 145.271,184.935 146.134,185.044 146.242 C 185.108 146.307,184.945 146.633,184.682 146.967 C 184.419 147.301,184.204 147.757,184.204 147.979 C 184.204 148.202,184.113 148.488,184.002 148.615 C 183.741 148.913,182.484 151.883,182.619 151.883 C 182.675 151.883,182.399 152.533,182.005 153.326 C 181.612 154.120,181.256 154.967,181.215 155.210 C 181.173 155.452,180.967 155.978,180.756 156.379 C 180.545 156.780,179.141 160.115,177.636 163.791 C 176.131 167.467,174.634 171.058,174.309 171.772 C 173.984 172.487,173.778 173.130,173.851 173.203 C 173.924 173.276,173.788 173.621,173.549 173.970 C 173.310 174.319,172.702 175.644,172.197 176.914 C 171.693 178.183,171.177 179.418,171.051 179.658 C 170.925 179.897,170.887 180.198,170.966 180.326 C 171.045 180.454,171.009 180.559,170.886 180.559 C 170.669 180.559,169.750 182.617,169.746 183.111 C 169.746 183.244,169.670 183.411,169.578 183.480 C 169.205 183.762,165.495 193.095,165.623 193.429 C 165.699 193.627,165.680 193.708,165.581 193.609 C 165.482 193.510,165.216 193.841,164.988 194.345 C 164.199 196.095,161.804 201.944,161.753 202.247 C 161.725 202.415,161.582 202.770,161.435 203.038 C 160.983 203.859,157.945 211.273,157.874 211.729 C 157.837 211.964,157.677 212.287,157.518 212.446 C 157.359 212.604,157.230 212.859,157.230 213.012 C 157.230 213.166,157.066 213.618,156.867 214.018 C 156.181 215.394,152.068 225.395,152.022 225.800 C 151.997 226.023,151.865 226.351,151.728 226.529 C 151.493 226.836,148.244 234.566,148.124 235.105 C 148.093 235.244,147.826 235.905,147.531 236.574 C 147.236 237.242,146.825 238.187,146.619 238.675 C 146.241 239.566,146.091 239.624,145.200 239.223 C 144.451 238.885,138.346 238.957,137.995 239.307 C 137.680 239.622,137.386 239.238,136.085 236.817 C 135.726 236.148,135.128 235.055,134.756 234.386 C 134.384 233.718,133.690 232.461,133.214 231.592 C 132.739 230.723,132.241 229.939,132.109 229.849 C 131.977 229.760,131.843 229.511,131.812 229.297 C 131.780 229.083,131.513 228.500,131.218 228.002 C 130.923 227.504,130.237 226.276,129.695 225.273 C 129.153 224.271,126.913 220.225,124.716 216.282 C 122.520 212.339,120.484 208.676,120.192 208.141 C 119.335 206.571,111.049 191.651,110.813 191.252 C 110.694 191.051,109.513 188.919,108.187 186.513 C 106.861 184.107,105.563 181.756,105.301 181.288 C 102.092 175.547,101.154 173.855,100.813 173.196 C 98.989 169.664,92.633 158.472,92.506 158.567 C 92.417 158.634,92.395 158.620,92.456 158.536 C 92.568 158.384,91.684 156.484,91.396 156.258 C 91.311 156.191,91.122 155.863,90.975 155.529 C 90.829 155.194,89.710 153.130,88.489 150.942 C 85.857 146.223,85.953 146.924,87.724 145.365 C 88.524 144.661,89.158 144.008,89.134 143.914 C 89.109 143.819,89.497 143.308,89.994 142.777 C 91.883 140.761,93.829 135.949,94.188 132.401 C 94.310 131.200,94.436 130.813,94.675 130.904 C 94.974 131.019,101.029 130.542,106.075 130.005 C 107.278 129.877,108.864 129.722,109.599 129.661 C 118.026 128.963,125.774 128.195,125.832 128.053 C 125.872 127.956,126.102 127.928,126.343 127.991 C 126.711 128.088,129.968 127.823,139.247 126.942 C 149.245 125.992,153.279 125.622,154.800 125.512 C 155.802 125.440,158.796 125.166,161.454 124.902 C 164.111 124.638,166.708 124.423,167.225 124.423 C 167.742 124.423,168.165 124.332,168.165 124.222 C 168.165 124.111,168.466 124.059,168.834 124.105 C 169.201 124.152,170.978 124.037,172.783 123.851 C 177.757 123.337,177.280 123.255,177.757 124.713 M227.947 124.196 C 228.013 124.272,231.458 124.638,235.601 125.010 C 239.745 125.381,243.572 125.729,244.107 125.782 C 244.642 125.836,245.959 125.930,247.033 125.990 C 248.108 126.051,249.147 126.153,249.342 126.217 C 249.789 126.363,266.161 127.876,268.287 127.967 C 269.156 128.005,270.030 128.087,270.231 128.151 C 270.431 128.215,272.673 128.448,275.213 128.669 C 281.359 129.204,281.390 129.206,284.326 129.508 C 285.729 129.651,287.807 129.816,288.943 129.874 C 290.079 129.931,291.173 130.032,291.373 130.097 C 291.574 130.163,292.558 130.282,293.560 130.363 C 299.414 130.835,312.993 132.165,313.189 132.287 C 313.317 132.366,313.478 132.849,313.546 133.360 C 313.758 134.936,315.317 137.972,316.528 139.166 L 317.637 140.260 316.803 141.758 C 316.345 142.582,315.642 143.858,315.241 144.593 C 314.840 145.328,313.833 147.132,313.003 148.603 C 312.173 150.073,311.473 151.401,311.447 151.555 C 311.421 151.709,311.273 151.988,311.117 152.175 C 310.795 152.563,307.898 157.712,307.898 157.896 C 307.898 157.962,307.530 158.632,307.081 159.385 C 306.631 160.138,305.876 161.464,305.403 162.333 C 304.929 163.202,303.883 165.088,303.078 166.525 C 302.272 167.962,301.674 169.137,301.748 169.137 C 301.822 169.137,301.736 169.313,301.558 169.528 C 301.380 169.742,301.120 170.120,300.982 170.366 C 300.647 170.960,296.015 179.262,295.497 180.194 C 295.275 180.595,294.528 181.925,293.837 183.150 C 293.146 184.375,292.415 185.742,292.213 186.188 C 292.010 186.634,291.612 187.382,291.328 187.849 C 290.599 189.050,288.186 193.386,287.606 194.539 C 287.339 195.070,287.062 195.559,286.991 195.626 C 286.814 195.793,282.693 203.212,282.383 203.922 C 282.245 204.238,281.897 204.878,281.610 205.346 C 281.149 206.097,280.142 207.880,278.384 211.057 C 278.088 211.592,276.625 214.227,275.132 216.912 C 273.639 219.598,272.418 221.922,272.418 222.076 C 272.418 222.231,272.325 222.357,272.212 222.357 C 271.971 222.357,271.050 224.316,271.148 224.618 C 271.185 224.731,271.130 224.771,271.027 224.708 C 270.923 224.644,270.138 225.872,269.282 227.435 L 267.725 230.278 266.122 229.947 C 265.241 229.766,264.274 229.663,263.973 229.720 C 263.673 229.777,263.426 229.713,263.426 229.579 C 263.426 229.223,256.369 229.551,254.435 229.996 C 253.566 230.196,252.794 230.363,252.720 230.368 C 252.645 230.373,252.395 229.912,252.164 229.344 C 251.933 228.776,251.584 228.001,251.388 227.623 C 251.193 227.245,251.033 226.793,251.033 226.620 C 251.033 226.447,250.870 226.170,250.671 226.005 C 250.472 225.839,250.363 225.617,250.429 225.511 C 250.495 225.404,250.317 224.788,250.034 224.141 C 249.752 223.494,249.162 222.090,248.724 221.021 C 248.286 219.951,247.626 218.420,247.257 217.618 C 246.888 216.817,246.553 215.996,246.512 215.796 C 246.448 215.486,244.384 210.445,243.377 208.141 C 243.202 207.740,242.322 205.608,241.421 203.403 C 240.520 201.198,239.703 199.229,239.604 199.028 C 239.506 198.828,239.070 197.789,238.636 196.719 C 238.202 195.650,237.658 194.338,237.428 193.803 C 237.197 193.269,236.209 190.863,235.232 188.457 C 234.254 186.051,233.342 183.937,233.205 183.759 C 233.069 183.580,232.936 183.252,232.911 183.030 C 232.866 182.633,228.744 172.617,228.054 171.226 C 227.861 170.838,227.704 170.395,227.704 170.242 C 227.704 170.089,227.574 169.834,227.415 169.675 C 227.257 169.517,227.097 169.194,227.060 168.958 C 226.964 168.340,223.633 160.390,223.304 159.994 C 223.151 159.810,223.089 159.660,223.164 159.660 C 223.291 159.660,221.088 154.147,219.985 151.702 C 219.729 151.135,219.430 150.752,219.320 150.852 C 219.210 150.951,219.202 150.891,219.302 150.717 C 219.508 150.361,215.606 140.705,215.257 140.705 C 215.137 140.705,215.104 140.598,215.185 140.467 C 215.266 140.336,215.223 140.024,215.089 139.773 C 214.954 139.523,214.627 138.766,214.361 138.091 L 213.878 136.864 214.827 136.236 C 218.027 134.118,221.600 129.365,223.204 125.093 L 223.637 123.940 225.731 123.999 C 226.883 124.032,227.880 124.120,227.947 124.196 M208.428 140.054 C 208.432 140.426,211.671 148.260,211.996 148.684 C 212.132 148.862,212.264 149.190,212.290 149.413 C 212.335 149.817,216.448 159.819,217.134 161.195 C 217.334 161.595,217.497 162.055,217.497 162.219 C 217.497 162.383,217.660 162.652,217.859 162.817 C 218.058 162.982,218.173 163.194,218.114 163.289 C 218.018 163.444,221.339 171.637,221.791 172.360 C 221.894 172.526,222.000 172.798,222.025 172.966 C 222.070 173.264,224.440 179.060,225.255 180.867 C 225.483 181.371,225.750 181.703,225.848 181.604 C 225.947 181.505,225.966 181.586,225.890 181.784 C 225.762 182.117,229.472 191.451,229.845 191.732 C 229.937 191.802,230.013 191.968,230.014 192.102 C 230.017 192.595,230.936 194.654,231.153 194.654 C 231.276 194.654,231.313 194.759,231.233 194.887 C 231.154 195.015,231.192 195.316,231.318 195.555 C 231.444 195.794,231.960 197.029,232.465 198.299 C 232.969 199.569,233.578 200.893,233.816 201.242 C 234.055 201.592,234.191 201.937,234.118 202.010 C 234.046 202.082,234.252 202.726,234.576 203.440 C 234.901 204.154,236.398 207.746,237.903 211.422 C 239.409 215.097,240.813 218.433,241.024 218.834 C 241.235 219.235,241.434 219.720,241.466 219.912 C 241.554 220.429,244.023 226.329,244.264 226.598 C 244.378 226.725,244.471 227.001,244.471 227.212 C 244.471 227.423,244.661 227.866,244.892 228.196 C 245.123 228.526,245.315 228.906,245.317 229.040 C 245.325 229.448,246.259 231.835,246.411 231.835 C 247.258 231.835,246.440 233.042,245.011 233.900 C 243.380 234.880,237.667 240.272,237.667 240.832 C 237.667 240.991,237.336 241.539,236.931 242.050 C 236.037 243.179,233.742 247.915,233.657 248.809 C 233.623 249.163,233.468 249.773,233.313 250.163 C 233.157 250.554,233.086 251.019,233.154 251.196 C 233.222 251.374,233.159 251.519,233.014 251.519 C 232.869 251.519,232.806 251.734,232.875 251.996 C 233.142 253.018,233.121 253.018,184.812 253.580 C 178.663 253.651,170.494 253.774,166.657 253.853 L 159.681 253.996 159.527 253.304 C 158.698 249.570,157.172 246.819,154.392 244.048 L 152.139 241.802 152.762 240.281 C 153.105 239.445,153.488 238.565,153.615 238.325 C 153.741 238.086,153.779 237.785,153.700 237.657 C 153.621 237.529,153.657 237.424,153.780 237.424 C 153.997 237.424,154.916 235.366,154.919 234.872 C 154.920 234.739,154.996 234.572,155.088 234.503 C 155.461 234.221,159.171 224.888,159.043 224.554 C 158.967 224.356,158.983 224.273,159.079 224.368 C 159.174 224.464,159.461 224.078,159.715 223.510 C 160.603 221.531,162.862 216.038,162.913 215.736 C 162.941 215.568,163.084 215.213,163.231 214.945 C 163.683 214.124,166.721 206.710,166.792 206.254 C 166.829 206.019,166.989 205.696,167.148 205.537 C 167.306 205.379,167.436 205.124,167.436 204.971 C 167.436 204.817,167.599 204.365,167.799 203.965 C 168.485 202.589,172.598 192.587,172.644 192.183 C 172.669 191.960,172.801 191.632,172.938 191.454 C 173.075 191.276,173.987 189.162,174.964 186.756 C 175.942 184.350,176.930 181.944,177.161 181.409 C 177.391 180.875,177.935 179.563,178.369 178.493 C 178.803 177.424,179.238 176.385,179.337 176.184 C 179.435 175.983,180.253 174.015,181.154 171.810 C 182.054 169.605,182.936 167.473,183.112 167.072 C 183.289 166.671,184.102 164.702,184.920 162.697 C 185.739 160.693,186.517 158.856,186.651 158.617 C 186.784 158.378,186.835 158.086,186.762 157.970 C 186.690 157.853,186.717 157.721,186.823 157.676 C 186.928 157.631,187.383 156.719,187.835 155.650 C 188.286 154.581,189.022 152.850,189.470 151.804 C 189.919 150.758,190.231 149.814,190.164 149.705 C 190.097 149.597,190.205 149.373,190.404 149.208 C 190.603 149.043,190.765 148.766,190.765 148.593 C 190.765 148.419,190.923 147.968,191.116 147.590 C 191.510 146.815,191.975 145.731,193.325 142.443 L 194.257 140.171 195.245 140.330 C 198.051 140.781,199.831 140.917,201.703 140.825 C 203.967 140.713,207.370 140.081,207.484 139.750 C 207.589 139.447,208.424 139.716,208.428 140.054 M362.438 170.537 C 378.060 186.210,390.797 199.059,390.743 199.091 C 390.184 199.420,388.419 200.183,385.905 201.182 C 381.734 202.839,380.216 203.477,380.073 203.634 C 380.006 203.707,379.787 203.798,379.587 203.836 C 378.841 203.977,377.886 204.441,377.886 204.661 C 377.886 204.786,377.792 204.831,377.676 204.759 C 377.407 204.593,375.456 205.354,375.456 205.626 C 375.456 205.740,375.190 205.832,374.865 205.832 C 374.541 205.832,374.116 205.991,373.922 206.185 C 373.728 206.379,373.513 206.481,373.443 206.412 C 373.374 206.342,372.763 206.566,372.086 206.910 C 371.409 207.253,370.745 207.533,370.611 207.533 C 370.477 207.533,369.769 207.807,369.039 208.141 C 368.308 208.475,367.642 208.748,367.558 208.748 C 367.475 208.748,366.839 209.005,366.145 209.319 C 365.452 209.633,362.916 210.690,360.510 211.669 C 358.104 212.647,355.699 213.669,355.164 213.939 C 354.629 214.210,353.999 214.464,353.764 214.505 C 353.528 214.545,352.599 214.923,351.698 215.344 C 350.798 215.766,349.923 216.139,349.754 216.175 C 349.200 216.292,343.262 218.776,343.026 218.990 C 342.899 219.104,342.622 219.198,342.411 219.198 C 342.200 219.198,341.762 219.384,341.438 219.611 C 341.113 219.839,340.679 220.041,340.473 220.061 C 339.868 220.119,335.611 221.933,335.709 222.091 C 335.758 222.171,335.562 222.248,335.274 222.263 C 334.697 222.294,327.654 225.174,327.136 225.591 C 326.958 225.735,326.630 225.870,326.407 225.892 C 325.785 225.953,321.639 227.730,321.547 227.976 C 321.502 228.095,321.371 228.134,321.255 228.063 C 321.140 227.992,320.502 228.196,319.837 228.516 C 319.172 228.837,318.347 229.170,318.002 229.257 C 317.657 229.343,317.375 229.528,317.375 229.667 C 317.375 229.806,317.292 229.868,317.191 229.805 C 317.089 229.742,316.624 229.862,316.158 230.070 C 315.692 230.278,315.200 230.478,315.067 230.514 C 314.762 230.596,310.498 232.351,309.356 232.865 C 308.888 233.075,307.357 233.707,305.954 234.269 C 304.550 234.831,303.293 235.365,303.159 235.456 C 303.026 235.547,302.479 235.771,301.944 235.953 C 301.409 236.135,300.261 236.614,299.392 237.017 C 298.524 237.419,297.758 237.763,297.691 237.779 C 296.805 237.999,295.747 238.485,295.747 238.672 C 295.747 238.803,295.641 238.845,295.511 238.765 C 295.382 238.685,294.917 238.811,294.479 239.044 C 294.040 239.278,293.627 239.477,293.560 239.486 C 292.852 239.585,290.946 240.483,291.059 240.664 C 291.139 240.795,291.093 240.832,290.955 240.747 C 290.726 240.605,289.093 241.184,286.634 242.280 C 284.914 243.046,284.640 243.076,284.264 242.539 C 284.073 242.267,283.828 242.126,283.718 242.225 C 283.608 242.325,283.589 242.283,283.675 242.132 C 283.992 241.577,278.887 235.723,278.085 235.723 C 277.922 235.723,277.697 235.560,277.585 235.360 C 277.389 235.009,274.204 232.807,273.892 232.807 C 273.807 232.807,273.737 232.596,273.737 232.339 C 273.737 232.081,273.801 231.910,273.879 231.958 C 274.003 232.035,274.966 230.375,277.473 225.759 C 277.872 225.024,279.998 221.197,282.196 217.254 C 284.395 213.311,286.581 209.374,287.055 208.505 C 287.529 207.637,288.621 205.668,289.481 204.131 C 290.342 202.594,291.524 200.462,292.107 199.392 C 293.331 197.150,293.948 196.030,295.607 193.042 C 297.236 190.107,297.496 189.642,298.406 188.032 C 298.841 187.263,299.103 186.631,298.990 186.627 C 298.877 186.622,298.954 186.486,299.161 186.323 C 299.368 186.160,299.928 185.316,300.405 184.447 C 300.883 183.578,301.639 182.211,302.085 181.409 C 305.683 174.945,307.007 172.450,307.007 172.135 C 307.007 171.956,307.061 171.865,307.128 171.932 C 307.264 172.068,308.656 169.718,308.728 169.231 C 308.753 169.059,308.943 168.721,309.149 168.481 C 309.604 167.952,312.097 163.423,312.089 163.141 C 312.085 163.031,312.317 162.620,312.603 162.229 C 313.106 161.540,314.667 158.789,316.146 155.983 C 316.542 155.231,316.817 154.547,316.757 154.464 C 316.696 154.381,316.719 154.368,316.808 154.435 C 316.978 154.562,318.369 152.273,318.448 151.734 C 318.473 151.562,318.662 151.224,318.868 150.984 C 319.250 150.537,320.430 148.439,321.643 146.051 C 322.935 143.508,323.058 143.395,324.239 143.669 C 326.641 144.226,332.368 143.306,333.491 142.183 C 333.639 142.035,333.822 141.942,333.898 141.978 C 333.974 142.013,346.817 154.864,362.438 170.537 M63.670 148.828 C 68.283 151.201,74.160 151.729,79.123 150.216 L 80.603 149.764 82.830 153.801 C 84.056 156.021,85.218 158.111,85.413 158.445 C 85.608 158.779,86.849 161.021,88.171 163.426 C 89.493 165.832,90.789 168.183,91.052 168.651 C 91.314 169.119,92.319 170.923,93.285 172.661 C 94.252 174.399,95.140 175.984,95.260 176.185 C 95.551 176.672,100.217 185.125,101.295 187.120 C 103.305 190.837,103.695 191.488,103.848 191.373 C 103.937 191.306,103.960 191.320,103.899 191.403 C 103.787 191.556,104.670 193.455,104.959 193.682 C 105.044 193.748,105.234 194.077,105.382 194.411 C 106.193 196.249,113.441 208.957,113.592 208.806 C 113.690 208.707,113.734 208.739,113.690 208.875 C 113.581 209.208,114.479 211.179,114.739 211.179 C 114.853 211.179,114.945 211.304,114.945 211.458 C 114.945 211.723,119.511 220.158,119.793 220.413 C 119.867 220.480,120.146 220.969,120.413 221.500 C 121.011 222.689,123.430 227.032,124.139 228.190 C 124.425 228.657,124.772 229.298,124.910 229.614 C 125.220 230.324,129.341 237.743,129.519 237.910 C 129.590 237.977,130.098 238.896,130.648 239.952 L 131.649 241.873 130.219 243.063 C 128.899 244.161,127.018 246.284,126.809 246.912 C 126.726 247.160,122.926 245.757,119.224 244.111 C 118.436 243.761,117.637 243.533,117.449 243.606 C 117.261 243.678,117.167 243.640,117.240 243.522 C 117.352 243.341,113.607 241.671,112.687 241.491 C 112.526 241.460,112.339 241.373,112.272 241.299 C 112.089 241.095,103.699 237.650,103.212 237.578 C 102.980 237.544,102.660 237.386,102.501 237.227 C 102.342 237.068,102.021 236.938,101.788 236.938 C 101.556 236.938,101.293 236.821,101.205 236.678 C 101.117 236.536,100.898 236.475,100.720 236.543 C 100.542 236.612,100.362 236.571,100.319 236.453 C 100.196 236.107,82.594 228.910,82.292 229.083 C 82.141 229.169,82.101 229.147,82.204 229.034 C 82.421 228.795,79.752 227.648,79.435 227.844 C 79.318 227.916,79.222 227.877,79.222 227.757 C 79.222 227.460,78.026 226.934,77.746 227.107 C 77.622 227.184,77.521 227.139,77.521 227.008 C 77.521 226.821,76.492 226.347,75.577 226.114 C 75.510 226.097,74.968 225.853,74.373 225.573 C 73.777 225.293,73.203 225.117,73.097 225.183 C 72.991 225.248,72.904 225.214,72.903 225.105 C 72.903 224.997,72.383 224.706,71.749 224.458 C 71.114 224.209,70.158 223.813,69.623 223.576 C 69.089 223.340,67.776 222.793,66.707 222.362 C 65.638 221.931,64.435 221.435,64.034 221.260 C 62.180 220.452,58.420 218.905,58.202 218.860 C 58.068 218.833,57.740 218.690,57.473 218.542 C 57.205 218.395,56.768 218.236,56.501 218.190 C 56.233 218.143,55.960 218.042,55.893 217.965 C 55.692 217.733,47.300 214.267,46.837 214.224 C 46.601 214.202,46.278 214.055,46.120 213.897 C 45.962 213.738,45.657 213.609,45.443 213.609 C 45.230 213.609,44.951 213.512,44.824 213.394 C 44.502 213.095,33.269 208.446,32.742 208.394 C 32.506 208.371,32.184 208.223,32.025 208.064 C 31.867 207.906,31.644 207.776,31.530 207.776 C 31.416 207.776,30.863 207.569,30.303 207.316 C 28.521 206.510,23.851 204.580,23.523 204.514 C 23.350 204.479,22.452 204.101,21.528 203.675 C 20.604 203.250,19.675 202.871,19.462 202.834 C 19.250 202.797,18.639 202.545,18.104 202.274 C 17.570 202.003,16.476 201.530,15.674 201.224 C 14.872 200.918,13.779 200.473,13.244 200.235 C 10.605 199.063,9.893 198.800,9.694 198.923 C 9.575 198.996,9.478 198.915,9.478 198.743 C 9.478 198.422,15.904 191.894,44.424 163.241 L 60.574 147.016 61.332 147.515 C 61.749 147.790,62.801 148.381,63.670 148.828 M13.487 207.159 C 16.326 208.321,17.369 208.741,17.740 208.871 C 17.807 208.894,18.243 209.085,18.710 209.295 C 19.176 209.505,19.641 209.626,19.742 209.563 C 19.844 209.500,19.927 209.563,19.927 209.702 C 19.927 209.841,20.209 210.025,20.554 210.112 C 20.898 210.198,21.724 210.531,22.389 210.852 C 23.053 211.172,23.692 211.377,23.807 211.305 C 23.922 211.234,24.053 211.275,24.098 211.397 C 24.202 211.679,28.950 213.659,29.118 213.490 C 29.187 213.421,29.417 213.517,29.628 213.703 C 30.144 214.156,37.165 217.070,37.826 217.105 C 38.114 217.120,38.309 217.199,38.259 217.280 C 38.154 217.449,42.769 219.351,43.062 219.259 C 43.169 219.225,43.256 219.285,43.256 219.392 C 43.256 219.499,43.666 219.727,44.168 219.898 C 44.669 220.070,45.419 220.363,45.834 220.550 C 47.728 221.401,51.919 223.114,52.248 223.171 C 52.448 223.206,52.940 223.407,53.341 223.618 C 53.742 223.828,57.843 225.553,62.454 227.451 C 67.066 229.348,71.302 231.111,71.869 231.368 C 72.435 231.625,72.971 231.835,73.060 231.835 C 73.149 231.835,73.817 232.116,74.544 232.460 C 75.271 232.804,75.923 233.028,75.993 232.958 C 76.064 232.887,76.280 232.989,76.474 233.183 C 76.668 233.377,77.093 233.536,77.417 233.536 C 77.742 233.536,78.007 233.629,78.007 233.742 C 78.007 234.014,79.958 234.775,80.228 234.609 C 80.343 234.537,80.437 234.582,80.437 234.707 C 80.437 234.928,81.393 235.391,82.139 235.532 C 82.339 235.570,82.558 235.659,82.625 235.730 C 82.691 235.800,83.238 236.061,83.840 236.309 C 84.441 236.558,85.264 236.904,85.668 237.078 C 86.073 237.252,87.276 237.742,88.341 238.165 C 89.407 238.589,90.826 239.178,91.495 239.473 C 93.732 240.464,94.258 240.631,94.555 240.448 C 94.730 240.340,94.788 240.367,94.697 240.513 C 94.563 240.729,98.093 242.364,99.149 242.576 C 99.350 242.616,99.569 242.710,99.635 242.784 C 99.824 242.994,108.468 246.537,108.800 246.540 C 108.962 246.541,109.230 246.678,109.395 246.844 C 109.561 247.009,109.871 247.145,110.085 247.145 C 110.299 247.145,110.578 247.240,110.705 247.356 C 110.832 247.472,113.341 248.550,116.282 249.752 C 119.222 250.954,121.847 252.028,122.114 252.139 C 122.382 252.251,122.710 252.350,122.844 252.360 C 123.857 252.437,124.160 253.102,123.928 254.742 C 123.645 256.737,123.918 260.314,124.454 261.644 C 124.607 262.023,124.764 262.581,124.804 262.885 C 124.844 263.188,125.357 264.337,125.944 265.436 L 127.012 267.436 111.463 283.232 C 102.911 291.920,89.175 305.863,80.940 314.216 C 72.704 322.570,65.098 330.311,64.037 331.419 L 62.109 333.433 61.697 332.512 C 61.471 332.006,61.097 331.074,60.866 330.441 C 60.636 329.808,60.298 329.167,60.117 329.016 C 59.935 328.865,59.841 328.653,59.908 328.545 C 59.975 328.437,59.658 327.492,59.204 326.446 C 58.749 325.400,58.303 324.298,58.212 323.998 C 58.122 323.697,57.939 323.451,57.806 323.451 C 57.674 323.451,57.629 323.349,57.706 323.224 C 57.855 322.983,56.873 320.713,56.560 320.575 C 56.459 320.530,56.435 320.398,56.507 320.281 C 56.580 320.164,56.528 319.873,56.392 319.633 C 56.257 319.394,55.529 317.667,54.775 315.796 C 54.022 313.925,53.210 311.956,52.972 311.422 C 52.734 310.887,51.808 308.657,50.916 306.466 C 50.023 304.275,49.205 302.307,49.098 302.092 C 48.990 301.877,48.546 300.826,48.110 299.757 C 47.674 298.688,47.098 297.321,46.830 296.719 C 46.563 296.118,46.319 295.516,46.288 295.383 C 46.217 295.075,44.087 289.888,43.474 288.531 C 43.221 287.970,43.013 287.410,43.013 287.285 C 43.013 287.160,42.851 286.923,42.652 286.758 C 42.453 286.593,42.339 286.378,42.399 286.281 C 42.497 286.123,38.396 275.993,37.534 274.267 C 37.340 273.877,37.181 273.425,37.181 273.261 C 37.181 273.097,37.018 272.828,36.819 272.663 C 36.620 272.498,36.505 272.285,36.564 272.191 C 36.660 272.036,33.339 263.843,32.887 263.120 C 32.784 262.954,32.678 262.682,32.653 262.514 C 32.608 262.216,30.238 256.420,29.423 254.612 C 29.195 254.109,28.928 253.777,28.830 253.876 C 28.731 253.975,28.712 253.893,28.789 253.694 C 28.918 253.356,25.217 244.035,24.840 243.751 C 24.744 243.680,24.665 243.512,24.664 243.378 C 24.661 242.885,23.742 240.826,23.525 240.826 C 23.402 240.826,23.365 240.721,23.445 240.593 C 23.524 240.465,23.486 240.164,23.360 239.925 C 23.234 239.685,22.717 238.451,22.210 237.181 C 21.704 235.911,21.126 234.613,20.926 234.296 C 20.725 233.979,20.545 233.542,20.526 233.324 C 20.487 232.896,14.288 217.848,13.655 216.646 C 13.444 216.245,13.243 215.753,13.208 215.553 C 13.173 215.352,12.645 213.997,12.035 212.541 C 10.999 210.070,10.764 209.519,9.797 207.290 C 9.594 206.823,9.428 206.385,9.429 206.318 C 9.429 206.252,9.328 206.007,9.204 205.775 C 8.939 205.279,8.727 205.211,13.487 207.159 M390.436 206.683 C 390.417 207.017,390.334 207.290,390.252 207.290 C 390.093 207.290,389.299 209.242,389.210 209.850 C 389.181 210.049,389.027 210.342,388.868 210.501 C 388.708 210.660,388.578 210.915,388.578 211.068 C 388.578 211.222,388.421 211.664,388.228 212.053 C 387.538 213.443,383.416 223.459,383.371 223.856 C 383.346 224.079,383.213 224.407,383.076 224.585 C 382.940 224.763,382.028 226.877,381.050 229.283 C 380.073 231.689,379.084 234.095,378.854 234.629 C 378.624 235.164,378.080 236.476,377.646 237.546 C 377.212 238.615,376.776 239.654,376.678 239.855 C 376.579 240.055,375.762 242.024,374.861 244.229 C 373.960 246.434,373.080 248.566,372.905 248.967 C 371.823 251.443,369.835 256.315,369.781 256.622 C 369.746 256.823,369.541 257.321,369.325 257.729 C 369.108 258.137,368.443 259.668,367.846 261.131 C 367.249 262.594,366.530 264.320,366.247 264.967 C 365.965 265.614,365.787 266.231,365.853 266.337 C 365.919 266.444,365.810 266.666,365.611 266.831 C 365.412 266.996,365.249 267.273,365.249 267.446 C 365.249 267.620,365.092 268.071,364.899 268.449 C 364.707 268.828,364.389 269.520,364.192 269.988 C 361.161 277.204,360.067 279.894,360.037 280.205 C 360.017 280.412,359.814 280.846,359.587 281.171 C 359.360 281.495,359.174 281.933,359.174 282.144 C 359.174 282.355,359.081 282.631,358.969 282.758 C 358.754 282.999,357.657 285.671,357.682 285.890 C 357.689 285.960,357.373 286.668,356.978 287.465 C 356.582 288.261,356.220 289.111,356.173 289.353 C 356.125 289.595,355.810 290.395,355.473 291.130 C 355.136 291.865,353.744 295.200,352.379 298.542 C 351.015 301.883,349.814 304.781,349.711 304.982 C 349.609 305.183,348.791 307.151,347.895 309.356 C 346.999 311.562,346.159 313.562,346.029 313.801 C 345.898 314.040,345.851 314.332,345.923 314.448 C 345.995 314.565,345.971 314.697,345.870 314.742 C 345.558 314.881,344.576 317.151,344.724 317.391 C 344.801 317.516,344.769 317.618,344.652 317.618 C 344.535 317.618,343.698 319.450,342.791 321.689 C 341.885 323.928,340.980 326.066,340.781 326.440 C 340.582 326.815,340.489 327.304,340.575 327.526 C 340.660 327.749,340.654 327.855,340.560 327.762 C 340.382 327.584,339.732 328.886,338.769 331.349 C 338.455 332.151,338.128 332.889,338.041 332.990 C 337.869 333.191,335.336 330.659,325.519 320.474 C 321.944 316.765,318.923 313.730,318.805 313.730 C 318.687 313.730,318.591 313.600,318.591 313.441 C 318.591 313.282,317.176 311.723,315.446 309.978 C 313.717 308.232,306.262 300.516,298.878 292.831 C 291.495 285.146,284.736 278.116,283.857 277.208 C 282.052 275.344,282.075 275.487,283.318 273.796 C 284.488 272.205,285.643 270.231,285.405 270.231 C 285.304 270.231,285.400 270.035,285.616 269.795 C 286.078 269.286,287.321 266.098,287.132 265.909 C 287.061 265.838,287.103 265.659,287.225 265.512 C 288.090 264.471,288.749 257.105,288.260 253.949 C 287.955 251.975,287.594 250.143,287.344 249.299 C 287.252 248.988,287.826 248.651,289.968 247.753 C 291.476 247.121,292.764 246.534,292.831 246.449 C 292.898 246.364,293.062 246.292,293.196 246.290 C 293.721 246.281,295.261 245.636,295.261 245.425 C 295.261 245.301,295.527 245.200,295.851 245.200 C 296.176 245.200,296.600 245.042,296.795 244.848 C 296.989 244.653,297.204 244.551,297.274 244.621 C 297.343 244.690,297.954 244.466,298.631 244.123 C 299.308 243.780,299.972 243.499,300.106 243.499 C 300.240 243.499,300.948 243.226,301.678 242.892 C 302.409 242.558,303.075 242.284,303.159 242.284 C 303.242 242.284,303.878 242.028,304.572 241.714 C 305.265 241.400,307.801 240.343,310.207 239.364 C 312.612 238.386,315.018 237.364,315.553 237.094 C 316.087 236.823,316.718 236.569,316.953 236.528 C 317.189 236.487,318.118 236.110,319.019 235.688 C 319.919 235.267,320.794 234.893,320.963 234.858 C 321.517 234.741,327.455 232.257,327.691 232.043 C 327.818 231.929,328.095 231.835,328.306 231.835 C 328.516 231.835,328.959 231.645,329.289 231.414 C 329.620 231.183,330.000 230.991,330.135 230.989 C 330.586 230.980,335.096 229.083,335.007 228.939 C 334.958 228.861,335.154 228.785,335.442 228.769 C 336.104 228.735,343.124 225.821,343.641 225.367 C 343.852 225.181,344.080 225.085,344.148 225.153 C 344.250 225.254,348.390 223.613,351.519 222.232 C 351.920 222.055,352.494 221.839,352.795 221.753 C 353.095 221.666,353.341 221.487,353.341 221.354 C 353.341 221.222,353.425 221.165,353.526 221.228 C 353.628 221.290,354.092 221.171,354.559 220.963 C 355.025 220.754,355.516 220.555,355.650 220.519 C 355.955 220.437,360.219 218.682,361.361 218.168 C 361.829 217.957,363.360 217.325,364.763 216.764 C 366.166 216.202,367.424 215.668,367.558 215.577 C 367.691 215.486,368.238 215.262,368.773 215.080 C 369.307 214.898,370.456 214.419,371.324 214.016 C 372.193 213.613,372.959 213.270,373.026 213.254 C 373.912 213.033,374.970 212.547,374.970 212.360 C 374.970 212.229,375.076 212.188,375.205 212.268 C 375.335 212.348,375.800 212.222,376.238 211.989 C 376.677 211.755,377.090 211.556,377.157 211.547 C 377.865 211.447,379.771 210.550,379.658 210.369 C 379.578 210.238,379.624 210.201,379.762 210.286 C 379.995 210.430,381.749 209.803,384.130 208.724 C 384.691 208.470,385.251 208.262,385.376 208.262 C 385.501 208.262,385.738 208.100,385.903 207.901 C 386.068 207.702,386.300 207.599,386.419 207.672 C 386.537 207.745,386.771 207.717,386.938 207.609 C 387.105 207.501,387.953 207.123,388.821 206.769 C 389.690 206.415,390.417 206.115,390.436 206.101 C 390.455 206.087,390.455 206.349,390.436 206.683 M232.803 262.697 C 232.836 262.764,232.843 263.010,232.820 263.244 C 232.796 263.478,232.889 263.670,233.027 263.670 C 233.165 263.670,233.222 263.815,233.154 263.992 C 233.086 264.170,233.161 264.634,233.322 265.025 C 233.483 265.416,233.596 265.821,233.573 265.925 C 233.443 266.515,236.237 272.292,237.241 273.512 C 237.351 273.645,237.713 274.137,238.045 274.605 C 238.909 275.824,242.568 279.465,242.929 279.465 C 243.096 279.465,243.320 279.616,243.427 279.801 C 243.533 279.986,244.168 280.497,244.836 280.937 C 245.504 281.377,246.081 281.757,246.118 281.782 C 246.155 281.807,245.961 282.350,245.687 282.989 C 245.412 283.628,245.242 284.205,245.308 284.271 C 245.374 284.337,245.212 284.664,244.950 284.998 C 244.687 285.333,244.471 285.788,244.471 286.011 C 244.471 286.233,244.379 286.519,244.266 286.646 C 244.047 286.894,242.937 289.605,243.007 289.723 C 243.030 289.762,242.713 290.470,242.303 291.297 C 241.893 292.124,241.518 292.999,241.470 293.241 C 241.423 293.483,241.108 294.283,240.771 295.018 C 240.434 295.753,239.041 299.089,237.677 302.430 C 236.312 305.772,235.112 308.670,235.009 308.870 C 234.906 309.071,234.089 311.040,233.193 313.245 C 232.297 315.450,231.457 317.450,231.326 317.689 C 231.196 317.928,231.148 318.220,231.220 318.337 C 231.293 318.453,231.257 318.586,231.141 318.631 C 230.830 318.751,229.873 321.038,230.028 321.290 C 230.102 321.409,230.067 321.507,229.950 321.507 C 229.833 321.507,228.996 323.338,228.089 325.577 C 227.182 327.816,226.278 329.954,226.079 330.328 C 225.880 330.703,225.787 331.192,225.873 331.415 C 225.958 331.638,225.950 331.742,225.854 331.646 C 225.667 331.458,225.157 332.493,224.026 335.358 C 223.630 336.361,223.158 337.509,222.976 337.910 C 222.258 339.498,221.903 340.462,222.035 340.462 C 222.111 340.462,222.049 340.612,221.897 340.795 C 221.567 341.192,218.236 349.142,218.140 349.760 C 218.104 349.996,217.944 350.319,217.785 350.477 C 217.627 350.636,217.497 350.940,217.497 351.154 C 217.497 351.368,217.404 351.647,217.291 351.774 C 217.177 351.901,215.087 356.871,212.646 362.819 C 210.205 368.767,208.060 373.961,207.880 374.362 C 206.982 376.355,206.577 377.471,206.686 377.648 C 206.753 377.756,206.703 377.881,206.575 377.926 C 206.224 378.049,202.395 387.409,202.541 387.788 C 202.611 387.969,202.572 388.058,202.455 387.986 C 202.338 387.914,202.178 388.045,202.099 388.277 C 202.021 388.510,201.752 389.182,201.502 389.770 L 201.049 390.841 200.257 388.920 C 198.676 385.086,198.137 383.961,197.964 384.134 C 197.867 384.231,197.857 384.128,197.943 383.906 C 198.028 383.683,197.935 383.194,197.736 382.819 C 197.538 382.445,196.633 380.307,195.726 378.068 C 194.820 375.829,193.982 373.998,193.865 373.998 C 193.749 373.998,193.713 373.900,193.787 373.781 C 193.943 373.529,192.986 371.242,192.674 371.121 C 192.558 371.077,192.523 370.944,192.595 370.828 C 192.667 370.711,192.619 370.419,192.489 370.180 C 192.358 369.941,191.519 367.941,190.622 365.736 C 189.726 363.530,188.909 361.562,188.806 361.361 C 188.704 361.161,187.503 358.262,186.139 354.921 C 184.774 351.580,183.382 348.244,183.044 347.509 C 182.707 346.774,182.392 345.974,182.345 345.732 C 182.297 345.490,181.923 344.615,181.512 343.788 C 181.102 342.961,180.785 342.253,180.808 342.214 C 180.879 342.096,179.769 339.385,179.549 339.137 C 179.436 339.010,179.344 338.724,179.344 338.502 C 179.344 338.279,179.129 337.824,178.866 337.489 C 178.603 337.155,178.439 336.830,178.503 336.767 C 178.566 336.703,177.733 334.529,176.652 331.935 C 174.025 325.632,174.019 325.618,173.618 324.828 C 173.426 324.450,173.269 323.999,173.269 323.825 C 173.269 323.652,173.106 323.375,172.907 323.210 C 172.708 323.045,172.600 322.821,172.667 322.713 C 172.734 322.604,172.422 321.660,171.973 320.614 C 171.525 319.568,170.789 317.837,170.338 316.768 C 169.887 315.699,169.431 314.787,169.326 314.742 C 169.220 314.697,169.193 314.565,169.266 314.448 C 169.338 314.332,169.288 314.040,169.154 313.801 C 169.020 313.562,168.242 311.725,167.424 309.721 C 166.605 307.716,165.792 305.747,165.615 305.346 C 165.439 304.945,164.557 302.813,163.657 300.608 C 162.756 298.403,161.938 296.435,161.840 296.234 C 161.741 296.033,161.306 294.994,160.872 293.925 C 160.438 292.855,159.894 291.543,159.664 291.009 C 159.433 290.474,158.445 288.068,157.467 285.662 C 156.490 283.256,155.578 281.142,155.441 280.964 C 155.304 280.786,155.171 280.458,155.146 280.235 C 155.120 280.012,154.377 278.098,153.494 275.981 L 151.889 272.131 153.847 270.290 C 155.650 268.593,157.492 266.343,157.077 266.343 C 156.981 266.343,157.129 266.097,157.407 265.796 C 158.054 265.095,159.244 262.259,159.075 261.818 C 159.004 261.634,159.038 261.482,159.151 261.482 C 159.264 261.482,159.416 261.182,159.490 260.814 L 159.625 260.146 166.143 260.076 C 194.391 259.776,231.971 259.240,232.074 259.135 C 232.143 259.065,232.322 259.811,232.472 260.792 C 232.621 261.773,232.771 262.631,232.803 262.697 M133.288 272.807 C 134.164 273.288,135.048 273.618,135.254 273.539 C 135.459 273.460,135.563 273.499,135.485 273.624 C 135.346 273.850,136.011 274.076,138.396 274.614 C 139.088 274.771,141.003 274.854,142.845 274.808 L 146.079 274.727 146.971 276.833 C 147.461 277.992,147.946 278.888,148.048 278.825 C 148.149 278.763,148.178 278.855,148.110 279.030 C 147.993 279.336,151.736 288.677,152.081 288.938 C 152.173 289.007,152.249 289.174,152.250 289.307 C 152.253 289.801,153.172 291.859,153.389 291.859 C 153.512 291.859,153.548 291.964,153.469 292.092 C 153.390 292.220,153.428 292.521,153.554 292.760 C 153.680 293.000,154.196 294.235,154.700 295.504 C 155.205 296.774,155.813 298.099,156.052 298.448 C 156.291 298.797,156.427 299.142,156.354 299.215 C 156.281 299.288,156.487 299.931,156.812 300.646 C 157.137 301.360,158.634 304.951,160.139 308.627 C 161.644 312.303,163.048 315.638,163.259 316.039 C 163.470 316.440,163.676 316.966,163.718 317.208 C 163.759 317.451,164.115 318.298,164.508 319.092 C 164.902 319.885,165.178 320.535,165.122 320.535 C 164.987 320.535,166.244 323.505,166.505 323.803 C 166.616 323.930,166.707 324.216,166.707 324.439 C 166.707 324.661,166.922 325.117,167.185 325.451 C 167.448 325.785,167.611 326.111,167.547 326.176 C 167.438 326.284,167.742 327.127,168.534 328.919 C 168.711 329.320,169.421 331.015,170.112 332.685 C 170.803 334.356,171.512 336.051,171.688 336.452 C 171.864 336.853,172.196 337.699,172.427 338.332 C 172.657 338.965,172.994 339.606,173.176 339.757 C 173.358 339.907,173.451 340.119,173.384 340.228 C 173.317 340.336,173.635 341.281,174.089 342.327 C 174.544 343.373,174.990 344.474,175.081 344.775 C 175.171 345.076,175.354 345.322,175.486 345.322 C 175.619 345.322,175.664 345.424,175.587 345.549 C 175.438 345.790,176.420 348.059,176.733 348.198 C 176.834 348.243,176.858 348.375,176.786 348.492 C 176.713 348.609,176.764 348.900,176.898 349.140 C 177.032 349.379,177.756 351.100,178.507 352.963 C 179.257 354.827,180.070 356.795,180.313 357.337 C 180.555 357.880,181.484 360.116,182.377 362.307 C 183.270 364.498,184.092 366.466,184.204 366.681 C 184.316 366.896,184.656 367.728,184.959 368.530 C 185.262 369.332,185.834 370.699,186.231 371.567 C 186.628 372.436,186.977 373.256,187.007 373.390 C 187.074 373.693,189.195 378.862,189.819 380.242 C 190.072 380.803,190.279 381.355,190.279 381.469 C 190.279 381.583,190.409 381.806,190.567 381.965 C 190.726 382.123,190.876 382.446,190.902 382.682 C 190.927 382.917,191.661 384.822,192.532 386.914 L 194.116 390.718 191.287 389.554 C 189.730 388.913,187.379 387.940,186.062 387.392 C 184.745 386.843,183.542 386.465,183.389 386.553 C 183.236 386.641,183.195 386.620,183.297 386.507 C 183.515 386.268,180.846 385.120,180.529 385.316 C 180.412 385.389,180.316 385.350,180.316 385.230 C 180.316 384.933,179.120 384.407,178.840 384.580 C 178.716 384.656,178.615 384.612,178.615 384.480 C 178.615 384.293,177.585 383.820,176.671 383.586 C 176.604 383.569,176.062 383.326,175.466 383.046 C 174.871 382.765,174.297 382.590,174.191 382.655 C 174.084 382.721,173.997 382.686,173.997 382.578 C 173.996 382.470,173.477 382.178,172.842 381.930 C 172.208 381.682,171.197 381.258,170.595 380.987 C 169.994 380.717,168.796 380.229,167.933 379.903 C 167.070 379.577,165.921 379.110,165.381 378.865 C 163.852 378.171,159.566 376.388,159.295 376.333 C 159.162 376.305,158.834 376.162,158.566 376.015 C 158.299 375.868,157.861 375.709,157.594 375.662 C 157.327 375.615,157.053 375.513,156.987 375.434 C 156.796 375.208,148.410 371.753,147.931 371.702 C 147.695 371.677,147.372 371.528,147.214 371.369 C 147.055 371.211,146.751 371.081,146.537 371.081 C 146.323 371.081,146.044 370.985,145.917 370.867 C 145.595 370.567,134.362 365.919,133.836 365.867 C 133.600 365.844,133.277 365.695,133.119 365.537 C 132.961 365.379,132.738 365.249,132.623 365.249 C 132.509 365.249,131.957 365.040,131.396 364.785 C 130.279 364.276,124.618 361.936,124.423 361.902 C 124.356 361.891,123.545 361.542,122.622 361.127 C 121.698 360.713,120.768 360.343,120.556 360.306 C 120.344 360.269,119.733 360.017,119.198 359.746 C 118.663 359.475,117.570 359.002,116.768 358.695 C 115.966 358.388,114.763 357.895,114.095 357.599 C 113.426 357.304,112.114 356.757,111.179 356.384 C 110.243 356.011,109.040 355.516,108.505 355.283 C 107.971 355.050,106.659 354.511,105.589 354.086 C 104.520 353.660,103.064 353.043,102.354 352.714 C 101.644 352.386,100.960 352.180,100.835 352.257 C 100.710 352.335,100.608 352.284,100.608 352.145 C 100.608 352.006,100.326 351.822,99.981 351.735 C 99.636 351.649,98.811 351.316,98.146 350.995 C 97.481 350.674,96.843 350.470,96.728 350.542 C 96.612 350.613,96.481 350.572,96.436 350.450 C 96.333 350.168,91.585 348.188,91.417 348.357 C 91.347 348.426,91.118 348.330,90.907 348.144 C 90.391 347.691,83.370 344.777,82.709 344.742 C 82.421 344.727,82.226 344.648,82.276 344.567 C 82.381 344.398,77.765 342.496,77.472 342.588 C 77.366 342.622,77.278 342.561,77.278 342.455 C 77.278 342.348,76.868 342.120,76.367 341.948 C 75.866 341.777,75.116 341.484,74.700 341.297 C 72.886 340.482,68.619 338.733,68.287 338.669 C 68.086 338.630,67.619 338.452,67.248 338.273 L 66.573 337.948 69.304 335.134 C 70.805 333.587,75.401 328.927,79.516 324.779 C 83.632 320.630,86.999 317.169,86.999 317.088 C 86.999 317.006,90.526 313.401,94.837 309.077 C 99.148 304.753,109.170 294.626,117.108 286.574 C 125.046 278.521,131.575 271.932,131.618 271.932 C 131.661 271.932,132.413 272.326,133.288 272.807 M279.236 281.592 C 280.087 282.494,283.639 286.185,287.128 289.793 C 290.617 293.402,296.526 299.526,300.258 303.402 C 303.991 307.278,308.494 311.908,310.266 313.690 C 312.038 315.472,313.487 316.995,313.487 317.073 C 313.487 317.151,314.889 318.646,316.603 320.394 C 318.317 322.142,322.826 326.789,326.623 330.721 L 333.528 337.870 332.603 338.258 C 332.095 338.471,331.766 338.732,331.871 338.837 C 331.977 338.943,331.892 338.964,331.683 338.884 C 331.474 338.803,330.438 339.113,329.382 339.573 C 328.325 340.032,325.273 341.302,322.600 342.395 C 319.927 343.488,317.703 344.485,317.658 344.611 C 317.614 344.736,317.483 344.781,317.367 344.709 C 317.252 344.638,316.614 344.842,315.949 345.163 C 315.284 345.483,314.458 345.817,314.114 345.903 C 313.769 345.990,313.487 346.174,313.487 346.313 C 313.487 346.452,313.385 346.502,313.260 346.425 C 313.134 346.348,312.451 346.554,311.741 346.885 C 311.031 347.215,309.311 347.938,307.920 348.491 C 306.528 349.045,305.216 349.588,305.003 349.699 C 304.791 349.810,302.539 350.742,300.000 351.770 C 297.461 352.799,295.055 353.813,294.654 354.024 C 294.253 354.235,293.751 354.438,293.539 354.475 C 293.327 354.511,292.397 354.890,291.473 355.316 C 290.549 355.742,289.652 356.119,289.479 356.154 C 288.960 356.259,283.007 358.756,282.758 358.973 C 282.631 359.083,282.355 359.174,282.144 359.174 C 281.933 359.174,281.495 359.360,281.171 359.587 C 280.846 359.814,280.412 360.018,280.205 360.039 C 279.713 360.089,268.477 364.756,268.177 365.034 C 268.050 365.152,267.763 365.249,267.539 365.249 C 267.315 365.249,266.996 365.412,266.831 365.611 C 266.666 365.810,266.446 365.921,266.343 365.857 C 266.190 365.762,262.189 367.338,258.931 368.777 C 258.530 368.954,257.956 369.169,257.655 369.256 C 257.354 369.342,257.108 369.522,257.108 369.654 C 257.108 369.787,257.025 369.844,256.923 369.781 C 256.822 369.718,256.357 369.837,255.891 370.046 C 255.424 370.254,254.933 370.453,254.800 370.487 C 254.571 370.546,250.571 372.202,248.967 372.901 C 248.566 373.075,247.363 373.571,246.294 374.002 C 245.225 374.434,243.913 374.979,243.378 375.214 C 242.843 375.449,242.023 375.784,241.555 375.959 C 241.087 376.134,239.994 376.603,239.125 377.001 C 238.256 377.399,237.491 377.738,237.424 377.755 C 236.538 377.975,235.480 378.461,235.480 378.648 C 235.480 378.779,235.379 378.824,235.255 378.748 C 234.975 378.574,233.779 379.101,233.779 379.397 C 233.779 379.517,233.683 379.556,233.566 379.484 C 233.249 379.288,230.580 380.435,230.797 380.674 C 230.900 380.787,230.859 380.808,230.705 380.721 C 230.435 380.566,225.252 382.567,224.572 383.088 C 224.387 383.230,224.114 383.354,223.965 383.364 C 223.816 383.373,223.475 383.472,223.208 383.584 C 222.940 383.695,220.316 384.769,217.375 385.971 C 214.435 387.173,211.925 388.251,211.798 388.367 C 211.671 388.483,211.384 388.578,211.160 388.578 C 210.936 388.578,210.614 388.745,210.445 388.949 C 210.276 389.152,210.084 389.266,210.020 389.201 C 209.955 389.137,209.552 389.230,209.125 389.408 L 208.349 389.732 211.007 383.262 C 212.468 379.704,213.812 376.464,213.992 376.063 C 214.915 374.011,215.293 372.951,215.172 372.756 C 215.098 372.637,215.139 372.539,215.262 372.539 C 215.615 372.539,219.511 362.889,219.303 362.528 C 219.202 362.354,219.209 362.292,219.317 362.390 C 219.426 362.488,219.639 362.324,219.792 362.025 C 220.234 361.159,223.124 354.105,223.175 353.768 C 223.201 353.600,223.306 353.328,223.409 353.162 C 223.861 352.439,227.182 344.246,227.086 344.091 C 227.028 343.996,227.143 343.784,227.342 343.619 C 227.541 343.454,227.704 343.177,227.704 343.003 C 227.704 342.830,227.857 342.379,228.046 342.000 C 229.104 339.872,233.039 330.191,232.922 330.002 C 232.862 329.904,232.975 329.689,233.174 329.524 C 233.373 329.359,233.536 329.122,233.536 328.997 C 233.536 328.872,233.743 328.312,233.996 327.751 C 234.620 326.371,236.741 321.202,236.809 320.899 C 236.838 320.765,237.187 319.945,237.584 319.077 C 237.981 318.208,238.553 316.841,238.856 316.039 C 239.159 315.237,239.499 314.405,239.611 314.190 C 239.723 313.975,240.546 312.007,241.438 309.816 C 242.331 307.625,243.260 305.389,243.503 304.847 C 243.745 304.304,244.558 302.336,245.309 300.472 C 246.059 298.609,246.783 296.888,246.917 296.649 C 247.051 296.409,247.102 296.118,247.030 296.001 C 246.958 295.884,246.981 295.752,247.082 295.707 C 247.395 295.569,248.377 293.299,248.228 293.058 C 248.151 292.933,248.196 292.831,248.329 292.831 C 248.461 292.831,248.644 292.585,248.735 292.284 C 248.825 291.984,249.274 290.876,249.732 289.822 C 250.190 288.769,250.509 287.852,250.442 287.785 C 250.375 287.718,250.535 287.389,250.798 287.055 C 251.061 286.721,251.276 286.366,251.276 286.267 C 251.276 286.167,251.437 285.699,251.635 285.226 L 251.994 284.367 253.275 284.709 C 260.559 286.657,270.166 285.028,276.185 280.826 C 277.720 279.755,277.434 279.683,279.236 281.592 " stroke="none" fill="#000000" fill-rule="evenodd"></path></g></svg>